<svg width="94" height="16" viewBox="0 0 94 16" fill="none" xmlns="http://www.w3.org/2000/svg">
<path d="M0.148438 10.8359C0.122396 10.7682 0.106771 10.7109 0.101562 10.6641C0.0963542 10.6172 0.09375 10.5573 0.09375 10.4844C0.09375 10.375 0.104167 10.2682 0.125 10.1641C0.145833 10.0599 0.169271 9.95833 0.195312 9.85938C0.226562 9.76042 0.255208 9.66406 0.28125 9.57031C0.3125 9.47135 0.338542 9.3724 0.359375 9.27344C0.385417 9.14844 0.408854 9.02604 0.429688 8.90625C0.455729 8.78125 0.523438 8.68229 0.632812 8.60938C0.648438 8.60417 0.677083 8.59896 0.71875 8.59375C0.760417 8.58854 0.804688 8.58333 0.851562 8.57812C0.898438 8.57292 0.940104 8.56771 0.976562 8.5625C1.01823 8.55729 1.04688 8.55469 1.0625 8.55469C1.08333 8.55469 1.11198 8.56771 1.14844 8.59375C1.1901 8.61979 1.21615 8.64323 1.22656 8.66406C1.3099 8.8151 1.375 8.95312 1.42188 9.07812C1.46875 9.20312 1.52865 9.35677 1.60156 9.53906L1.65625 9.63281V9.96094C1.67188 10.0234 1.69271 10.0781 1.71875 10.125C1.75 10.1667 1.78385 10.2057 1.82031 10.2422C1.85677 10.2734 1.89323 10.3047 1.92969 10.3359C1.97135 10.3672 2.01302 10.4036 2.05469 10.4453C2.09115 10.4974 2.1224 10.5521 2.14844 10.6094C2.17969 10.6615 2.21354 10.7109 2.25 10.7578C2.28646 10.8047 2.33073 10.8464 2.38281 10.8828C2.4349 10.9141 2.50521 10.9297 2.59375 10.9297C2.63021 10.9401 2.70312 10.9505 2.8125 10.9609C2.92708 10.9714 3.04688 10.9844 3.17188 11C3.30208 11.0104 3.42188 11.0208 3.53125 11.0312C3.64583 11.0417 3.72396 11.0495 3.76562 11.0547H3.83594C3.95052 11.0547 4.0599 11.0286 4.16406 10.9766C4.27344 10.9193 4.38021 10.8724 4.48438 10.8359C4.49479 10.8255 4.53125 10.8151 4.59375 10.8047C4.65625 10.7891 4.69271 10.7812 4.70312 10.7812C4.70833 10.776 4.73177 10.7552 4.77344 10.7188C4.82031 10.6771 4.85417 10.6458 4.875 10.625C4.88542 10.6094 4.90104 10.5859 4.92188 10.5547C4.94792 10.5234 4.97135 10.4948 4.99219 10.4688C5.01823 10.4375 5.03906 10.4115 5.05469 10.3906C5.07552 10.3698 5.08854 10.3568 5.09375 10.3516C5.09375 10.3464 5.09375 10.3307 5.09375 10.3047C5.09896 10.2734 5.10417 10.2422 5.10938 10.2109C5.11458 10.1797 5.11979 10.151 5.125 10.125C5.13021 10.099 5.13802 10.0833 5.14844 10.0781C5.14844 10.0729 5.15365 10.0599 5.16406 10.0391C5.17448 10.013 5.1849 9.98958 5.19531 9.96875C5.20573 9.94271 5.21615 9.91927 5.22656 9.89844C5.23698 9.8724 5.24219 9.85677 5.24219 9.85156C5.2474 9.84115 5.2526 9.82031 5.25781 9.78906C5.26302 9.75781 5.26823 9.72656 5.27344 9.69531C5.27865 9.65885 5.28385 9.6276 5.28906 9.60156C5.29427 9.57031 5.29688 9.54948 5.29688 9.53906C5.29688 9.51823 5.28646 9.47917 5.26562 9.42188C5.25 9.35938 5.24219 9.32292 5.24219 9.3125C5.23698 9.29167 5.23177 9.2474 5.22656 9.17969C5.22135 9.11198 5.21615 9.03906 5.21094 8.96094C5.20573 8.88281 5.20052 8.8125 5.19531 8.75C5.1901 8.68229 5.1875 8.63542 5.1875 8.60938C5.18229 8.58333 5.16406 8.54948 5.13281 8.50781C5.10156 8.46094 5.0651 8.41406 5.02344 8.36719C4.98698 8.3151 4.94792 8.26823 4.90625 8.22656C4.86458 8.17969 4.83073 8.14323 4.80469 8.11719C4.7474 8.03906 4.67708 7.96615 4.59375 7.89844C4.51042 7.83073 4.42448 7.77865 4.33594 7.74219C4.32031 7.73177 4.28906 7.72135 4.24219 7.71094C4.19531 7.69531 4.16667 7.6875 4.15625 7.6875C4.15104 7.68229 4.13542 7.66927 4.10938 7.64844C4.08333 7.6224 4.05469 7.59896 4.02344 7.57812C3.9974 7.55208 3.97135 7.52865 3.94531 7.50781C3.91927 7.48698 3.90104 7.47396 3.89062 7.46875C3.88021 7.46354 3.86198 7.45573 3.83594 7.44531C3.8099 7.42969 3.78646 7.42188 3.76562 7.42188C3.76042 7.41667 3.73958 7.40625 3.70312 7.39062C3.66667 7.375 3.6276 7.35938 3.58594 7.34375C3.54427 7.32292 3.50521 7.30469 3.46875 7.28906C3.43229 7.27344 3.41146 7.26302 3.40625 7.25781C3.375 7.2474 3.35156 7.23698 3.33594 7.22656C3.32031 7.22135 3.30729 7.21354 3.29688 7.20312C3.28646 7.19792 3.27083 7.1849 3.25 7.16406C3.22917 7.14323 3.20573 7.11979 3.17969 7.09375C3.15885 7.06771 3.13802 7.04427 3.11719 7.02344C3.09635 7.0026 3.08333 6.98958 3.07812 6.98438C3.07292 6.97917 3.05729 6.97135 3.03125 6.96094C3.01042 6.94531 2.98438 6.92969 2.95312 6.91406C2.92708 6.89323 2.89844 6.875 2.86719 6.85938C2.84115 6.83854 2.82031 6.82292 2.80469 6.8125C2.64844 6.72917 2.4974 6.63281 2.35156 6.52344C2.21094 6.41406 2.07031 6.30469 1.92969 6.19531C1.78906 6.08073 1.64583 5.97135 1.5 5.86719C1.35938 5.75781 1.21354 5.65885 1.0625 5.57031C1.04167 5.54427 1.00781 5.49479 0.960938 5.42188C0.914062 5.34896 0.864583 5.27083 0.8125 5.1875C0.765625 5.10417 0.71875 5.02865 0.671875 4.96094C0.625 4.88802 0.59375 4.83854 0.578125 4.8125C0.567708 4.80208 0.554688 4.78125 0.539062 4.75C0.523438 4.71875 0.505208 4.6875 0.484375 4.65625C0.46875 4.61979 0.453125 4.58594 0.4375 4.55469C0.427083 4.52344 0.419271 4.5 0.414062 4.48438V4.07812C0.414062 3.88021 0.419271 3.68229 0.429688 3.48438C0.445312 3.28646 0.476562 3.09635 0.523438 2.91406C0.565104 2.76823 0.638021 2.61198 0.742188 2.44531C0.851562 2.27344 0.976562 2.10938 1.11719 1.95312C1.25781 1.79167 1.40365 1.65104 1.55469 1.53125C1.70573 1.40625 1.84896 1.31771 1.98438 1.26562C1.98958 1.26562 2.00781 1.26562 2.03906 1.26562C2.07031 1.26042 2.10417 1.25781 2.14062 1.25781C2.18229 1.2526 2.21875 1.2474 2.25 1.24219C2.28646 1.23698 2.3099 1.23177 2.32031 1.22656C2.33594 1.22656 2.36719 1.22135 2.41406 1.21094C2.46094 1.20052 2.51042 1.1875 2.5625 1.17188C2.61458 1.15625 2.66406 1.14323 2.71094 1.13281C2.75781 1.1224 2.78906 1.11719 2.80469 1.11719C2.8099 1.11719 2.83333 1.11719 2.875 1.11719C2.92188 1.11719 2.97396 1.11719 3.03125 1.11719C3.09375 1.11198 3.15625 1.10938 3.21875 1.10938C3.28125 1.10938 3.32812 1.10938 3.35938 1.10938C3.38021 1.10938 3.41927 1.10938 3.47656 1.10938C3.53385 1.10938 3.59375 1.11198 3.65625 1.11719C3.71875 1.11719 3.77604 1.11719 3.82812 1.11719C3.88542 1.11719 3.92448 1.11719 3.94531 1.11719C3.99219 1.13802 4.04167 1.15365 4.09375 1.16406C4.14583 1.16927 4.19531 1.17708 4.24219 1.1875C4.29427 1.19271 4.34375 1.20052 4.39062 1.21094C4.44271 1.22135 4.49219 1.23958 4.53906 1.26562C4.54948 1.28125 4.56771 1.30469 4.59375 1.33594C4.61979 1.36198 4.63802 1.38021 4.64844 1.39062C4.7526 1.52083 4.86719 1.6276 4.99219 1.71094C5.11719 1.79427 5.26823 1.83594 5.44531 1.83594C5.57031 1.83594 5.66406 1.82031 5.72656 1.78906C5.78906 1.7526 5.84115 1.71354 5.88281 1.67188C5.92448 1.625 5.96615 1.58594 6.00781 1.55469C6.04948 1.51823 6.11458 1.5 6.20312 1.5C6.25 1.5 6.28385 1.50521 6.30469 1.51562C6.32552 1.52083 6.35417 1.55208 6.39062 1.60938C6.40104 1.625 6.41667 1.65365 6.4375 1.69531C6.45833 1.73698 6.47917 1.78125 6.5 1.82812C6.52604 1.875 6.54688 1.91927 6.5625 1.96094C6.58333 1.9974 6.59896 2.02344 6.60938 2.03906V2.07812V2.14844C6.60417 2.15365 6.59635 2.16927 6.58594 2.19531C6.58073 2.22135 6.57292 2.25 6.5625 2.28125C6.55729 2.3125 6.55208 2.34115 6.54688 2.36719C6.54167 2.39323 6.53906 2.40885 6.53906 2.41406V3.0625C6.47135 3.16146 6.42708 3.2526 6.40625 3.33594C6.39062 3.41927 6.36198 3.51302 6.32031 3.61719C6.32031 3.6276 6.30729 3.66406 6.28125 3.72656C6.25521 3.78385 6.23698 3.8151 6.22656 3.82031C6.20052 3.88802 6.17708 3.94792 6.15625 4C6.14062 4.04688 6.11719 4.08854 6.08594 4.125C6.0599 4.15625 6.02083 4.17969 5.96875 4.19531C5.92188 4.21094 5.85417 4.21875 5.76562 4.21875C5.64583 4.21875 5.54688 4.19531 5.46875 4.14844C5.39062 4.10156 5.32812 4.04167 5.28125 3.96875C5.23438 3.89583 5.19531 3.8125 5.16406 3.71875C5.13802 3.625 5.11198 3.53125 5.08594 3.4375C5.0599 3.33854 5.03125 3.24479 5 3.15625C4.96875 3.0625 4.92708 2.98177 4.875 2.91406C4.86458 2.90365 4.84115 2.8776 4.80469 2.83594C4.77344 2.79427 4.73698 2.75 4.69531 2.70312C4.65365 2.65625 4.61198 2.61198 4.57031 2.57031C4.53385 2.52344 4.50521 2.48958 4.48438 2.46875C4.45833 2.4375 4.41667 2.39583 4.35938 2.34375C4.30208 2.29167 4.24219 2.23958 4.17969 2.1875C4.11719 2.13021 4.05469 2.08333 3.99219 2.04688C3.92969 2.00521 3.8776 1.98438 3.83594 1.98438H3.13281C3.09635 1.95833 3.0625 1.94271 3.03125 1.9375C3.00521 1.93229 2.97656 1.92969 2.94531 1.92969H2.85938C2.69792 2.03385 2.54427 2.15104 2.39844 2.28125C2.2526 2.41146 2.11458 2.54688 1.98438 2.6875V2.79688C1.98438 2.89062 1.97396 2.96875 1.95312 3.03125C1.9375 3.09375 1.92969 3.17188 1.92969 3.26562V3.35156C1.92969 3.36198 1.9375 3.39583 1.95312 3.45312C1.97396 3.51042 1.98438 3.54427 1.98438 3.55469C1.98958 3.64323 1.99219 3.72135 1.99219 3.78906C1.99219 3.85677 1.99479 3.92188 2 3.98438C2.01042 4.04688 2.02604 4.10938 2.04688 4.17188C2.06771 4.23438 2.10156 4.30208 2.14844 4.375C2.16406 4.38542 2.17969 4.39844 2.19531 4.41406L2.26562 4.48438C2.28125 4.5 2.31771 4.53385 2.375 4.58594C2.43229 4.63802 2.49219 4.69531 2.55469 4.75781C2.6224 4.8151 2.6849 4.86979 2.74219 4.92188C2.80469 4.97396 2.84375 5.00781 2.85938 5.02344C2.86458 5.02865 2.8776 5.04167 2.89844 5.0625C2.91927 5.08333 2.9401 5.10677 2.96094 5.13281C2.98698 5.15885 3.01042 5.18229 3.03125 5.20312C3.05729 5.22396 3.07292 5.23698 3.07812 5.24219C3.08854 5.2474 3.11458 5.26042 3.15625 5.28125C3.20312 5.30208 3.25521 5.32812 3.3125 5.35938C3.36979 5.38542 3.42708 5.41406 3.48438 5.44531C3.54167 5.47656 3.58594 5.5 3.61719 5.51562C3.7526 5.57292 3.89062 5.64062 4.03125 5.71875C4.17708 5.79688 4.32812 5.83594 4.48438 5.83594C4.73438 6.0026 5 6.17708 5.28125 6.35938C5.5625 6.54167 5.82031 6.73177 6.05469 6.92969C6.07552 6.9401 6.09635 6.95833 6.11719 6.98438C6.14323 7.01042 6.16146 7.02865 6.17188 7.03906C6.17708 7.04948 6.1849 7.07031 6.19531 7.10156C6.21094 7.1276 6.22656 7.15885 6.24219 7.19531C6.26302 7.23177 6.27865 7.26562 6.28906 7.29688C6.30469 7.32812 6.3151 7.34635 6.32031 7.35156C6.40885 7.48698 6.5 7.61198 6.59375 7.72656C6.6875 7.83594 6.75781 7.96615 6.80469 8.11719C6.8099 8.1276 6.8151 8.15104 6.82031 8.1875C6.83073 8.22396 6.83854 8.26562 6.84375 8.3125C6.84896 8.35417 6.85417 8.39583 6.85938 8.4375C6.86458 8.47396 6.86979 8.49479 6.875 8.5C6.875 8.51042 6.88281 8.53646 6.89844 8.57812C6.91927 8.61979 6.92969 8.64844 6.92969 8.66406V8.77344C6.92969 8.86198 6.91146 8.9349 6.875 8.99219C6.84375 9.04427 6.82031 9.11979 6.80469 9.21875C6.80469 9.23958 6.80729 9.29427 6.8125 9.38281C6.81771 9.46615 6.82031 9.54948 6.82031 9.63281C6.82031 9.73177 6.8151 9.79167 6.80469 9.8125C6.80469 9.81771 6.79688 9.83333 6.78125 9.85938C6.77083 9.88542 6.75521 9.91406 6.73438 9.94531C6.71875 9.97135 6.70312 9.9974 6.6875 10.0234C6.67188 10.0495 6.66146 10.0677 6.65625 10.0781C6.64583 10.0938 6.6224 10.1406 6.58594 10.2188C6.54948 10.2917 6.50781 10.3724 6.46094 10.4609C6.41927 10.5443 6.38021 10.625 6.34375 10.7031C6.30729 10.776 6.28125 10.8203 6.26562 10.8359C6.26562 10.8464 6.2474 10.8698 6.21094 10.9062C6.17969 10.9427 6.14062 10.9844 6.09375 11.0312C6.04688 11.0781 6 11.125 5.95312 11.1719C5.91146 11.2135 5.8776 11.2474 5.85156 11.2734C5.6849 11.4245 5.51302 11.5573 5.33594 11.6719C5.15885 11.7812 4.96615 11.8646 4.75781 11.9219C4.73177 11.9271 4.67188 11.9401 4.57812 11.9609C4.48438 11.9818 4.38281 12.0026 4.27344 12.0234C4.16406 12.0495 4.05729 12.0729 3.95312 12.0938C3.85417 12.1146 3.77865 12.1276 3.72656 12.1328H3.67188C3.39062 12.1328 3.09896 12.125 2.79688 12.1094C2.5 12.0938 2.21094 12.0495 1.92969 11.9766C1.8776 11.9609 1.83073 11.9401 1.78906 11.9141C1.7474 11.8828 1.70312 11.8516 1.65625 11.8203C1.61458 11.7891 1.57292 11.7578 1.53125 11.7266C1.48958 11.6953 1.44271 11.6693 1.39062 11.6484C1.35417 11.6328 1.29427 11.612 1.21094 11.5859C1.1276 11.5547 1.04167 11.5234 0.953125 11.4922C0.869792 11.4609 0.791667 11.4323 0.71875 11.4062C0.645833 11.375 0.598958 11.349 0.578125 11.3281C0.5625 11.3073 0.533854 11.2734 0.492188 11.2266C0.450521 11.1797 0.40625 11.1302 0.359375 11.0781C0.3125 11.026 0.268229 10.9766 0.226562 10.9297C0.190104 10.8828 0.164062 10.8516 0.148438 10.8359ZM9.85938 8.74219C9.85938 9.01302 9.90625 9.26823 10 9.50781C10.0938 9.74219 10.2083 9.97917 10.3438 10.2188C10.3802 10.2812 10.4089 10.3438 10.4297 10.4062C10.4557 10.4635 10.4818 10.5208 10.5078 10.5781C10.5339 10.6302 10.5651 10.6797 10.6016 10.7266C10.638 10.7734 10.6927 10.8151 10.7656 10.8516C10.776 10.8568 10.7943 10.8646 10.8203 10.875C10.8516 10.8854 10.8828 10.8984 10.9141 10.9141C10.9453 10.9297 10.9714 10.9427 10.9922 10.9531C11.0182 10.9635 11.0339 10.9714 11.0391 10.9766C11.0911 11.0078 11.1354 11.0443 11.1719 11.0859C11.2083 11.1276 11.2448 11.1667 11.2812 11.2031C11.3177 11.2396 11.3568 11.2708 11.3984 11.2969C11.4453 11.3229 11.5 11.3359 11.5625 11.3359C11.7188 11.3359 11.8646 11.3021 12 11.2344C12.1406 11.1667 12.2734 11.0807 12.3984 10.9766C12.5234 10.8724 12.638 10.763 12.7422 10.6484C12.8516 10.5286 12.9531 10.4167 13.0469 10.3125C13.0833 10.1823 13.1276 10.0807 13.1797 10.0078C13.2318 9.92969 13.2786 9.83333 13.3203 9.71875C13.3828 9.56771 13.4193 9.42708 13.4297 9.29688C13.4401 9.16146 13.4453 9.01823 13.4453 8.86719C13.4453 8.60156 13.4193 8.33073 13.3672 8.05469C13.3203 7.77344 13.2448 7.5026 13.1406 7.24219C13.0417 6.97656 12.9167 6.72656 12.7656 6.49219C12.6198 6.2526 12.4453 6.04427 12.2422 5.86719C12.2161 5.86719 12.1641 5.86458 12.0859 5.85938C12.0078 5.85417 11.9557 5.85156 11.9297 5.85156C11.6797 5.85156 11.4427 5.89062 11.2188 5.96875C10.9948 6.04688 10.8125 6.19271 10.6719 6.40625C10.651 6.43229 10.6172 6.47396 10.5703 6.53125C10.5286 6.58854 10.5026 6.6224 10.4922 6.63281C10.487 6.63281 10.4609 6.64844 10.4141 6.67969C10.3672 6.70573 10.3438 6.72135 10.3438 6.72656C10.3229 6.7474 10.2995 6.77865 10.2734 6.82031C10.2526 6.85677 10.237 6.88542 10.2266 6.90625C10.2266 6.91146 10.224 6.93229 10.2188 6.96875C10.2188 7.00521 10.2161 7.04427 10.2109 7.08594C10.2057 7.1276 10.1979 7.16927 10.1875 7.21094C10.1823 7.2474 10.1771 7.26823 10.1719 7.27344C10.1719 7.29427 10.1562 7.33333 10.125 7.39062C10.0938 7.44271 10.0781 7.47396 10.0781 7.48438C10.0417 7.55208 10.0156 7.625 10 7.70312C9.98958 7.78125 9.97396 7.85677 9.95312 7.92969C9.94792 7.96615 9.9401 8.02083 9.92969 8.09375C9.91927 8.16667 9.90885 8.23958 9.89844 8.3125C9.88802 8.38542 9.8776 8.45312 9.86719 8.51562C9.86198 8.57292 9.85938 8.60938 9.85938 8.625V8.74219ZM10.8906 12.0547C10.8333 12.0234 10.7708 12 10.7031 11.9844C10.6406 11.9688 10.5755 11.9557 10.5078 11.9453C10.4453 11.9297 10.3828 11.9141 10.3203 11.8984C10.263 11.8828 10.2135 11.862 10.1719 11.8359C10.151 11.8203 10.1146 11.7943 10.0625 11.7578C10.0156 11.7161 9.96354 11.6719 9.90625 11.625C9.84896 11.5781 9.79427 11.5339 9.74219 11.4922C9.6901 11.4453 9.65365 11.4115 9.63281 11.3906C9.59635 11.3594 9.54688 11.3151 9.48438 11.2578C9.42188 11.1953 9.35938 11.1328 9.29688 11.0703C9.23438 11.0078 9.17708 10.9505 9.125 10.8984C9.07812 10.8464 9.05208 10.8125 9.04688 10.7969C9.04167 10.7969 9.02604 10.776 9 10.7344C8.97396 10.6875 8.94271 10.6328 8.90625 10.5703C8.86979 10.5078 8.83333 10.4453 8.79688 10.3828C8.76042 10.3151 8.73177 10.2604 8.71094 10.2188C8.6849 10.1667 8.65104 10.1042 8.60938 10.0312C8.57292 9.95312 8.53646 9.875 8.5 9.79688C8.46875 9.71875 8.4401 9.64323 8.41406 9.57031C8.39323 9.49219 8.38281 9.42708 8.38281 9.375V8.02344C8.42448 7.90885 8.46094 7.78906 8.49219 7.66406C8.52344 7.53906 8.54167 7.40885 8.54688 7.27344C8.5625 7.24219 8.58854 7.1875 8.625 7.10938C8.66667 7.03125 8.71094 6.95052 8.75781 6.86719C8.80469 6.77865 8.84896 6.69792 8.89062 6.625C8.9375 6.54688 8.96875 6.49219 8.98438 6.46094C9.0625 6.33073 9.14844 6.21615 9.24219 6.11719C9.33594 6.01823 9.4375 5.92969 9.54688 5.85156C9.65625 5.77344 9.77083 5.70312 9.89062 5.64062C10.0156 5.57292 10.1458 5.5026 10.2812 5.42969C10.4167 5.36198 10.5677 5.3125 10.7344 5.28125C10.901 5.25 11.0599 5.21094 11.2109 5.16406C11.2682 5.13802 11.3229 5.11198 11.375 5.08594C11.4323 5.05469 11.4948 5.03906 11.5625 5.03906C11.5729 5.03906 11.5859 5.03906 11.6016 5.03906C11.6224 5.03906 11.6354 5.04427 11.6406 5.05469C11.6458 5.05469 11.6589 5.05729 11.6797 5.0625C11.7005 5.06771 11.7214 5.07552 11.7422 5.08594C11.7682 5.09115 11.7917 5.09635 11.8125 5.10156C11.8385 5.10677 11.8542 5.10938 11.8594 5.10938H12.2422C12.3151 5.10938 12.375 5.125 12.4219 5.15625C12.474 5.18229 12.5208 5.21094 12.5625 5.24219C12.6042 5.27344 12.6458 5.30469 12.6875 5.33594C12.7292 5.36198 12.7786 5.375 12.8359 5.375H13.1875H13.3203C13.3255 5.375 13.3385 5.38281 13.3594 5.39844C13.3854 5.41406 13.4089 5.43229 13.4297 5.45312C13.4557 5.46875 13.4792 5.48438 13.5 5.5C13.5208 5.51562 13.5339 5.52344 13.5391 5.52344C13.5443 5.53906 13.5625 5.55208 13.5938 5.5625C13.625 5.57292 13.6458 5.58333 13.6562 5.59375C13.6615 5.59375 13.6745 5.59635 13.6953 5.60156C13.7214 5.60677 13.75 5.61198 13.7812 5.61719C13.8125 5.6224 13.8411 5.6276 13.8672 5.63281C13.8984 5.63802 13.9193 5.64323 13.9297 5.64844C13.9661 5.66406 13.9922 5.6875 14.0078 5.71875C14.0234 5.74479 14.0365 5.77344 14.0469 5.80469C14.0573 5.83594 14.0677 5.86719 14.0781 5.89844C14.0885 5.92448 14.1068 5.94792 14.1328 5.96875C14.138 5.97396 14.151 5.98438 14.1719 6C14.1979 6.01562 14.2214 6.03385 14.2422 6.05469C14.2682 6.07031 14.2917 6.08594 14.3125 6.10156C14.3333 6.11719 14.3438 6.1276 14.3438 6.13281C14.3542 6.13281 14.3646 6.14062 14.375 6.15625C14.3906 6.16667 14.3984 6.17708 14.3984 6.1875C14.4297 6.21875 14.4661 6.25781 14.5078 6.30469C14.5547 6.35156 14.599 6.39844 14.6406 6.44531C14.6875 6.49219 14.724 6.53385 14.75 6.57031C14.7812 6.60677 14.7969 6.6276 14.7969 6.63281C14.7969 6.63802 14.7995 6.65625 14.8047 6.6875C14.8099 6.71875 14.8151 6.7526 14.8203 6.78906C14.8255 6.82552 14.8281 6.85938 14.8281 6.89062C14.8333 6.92188 14.8359 6.9401 14.8359 6.94531C14.8411 6.96094 14.8516 6.99479 14.8672 7.04688C14.8828 7.09375 14.8984 7.14323 14.9141 7.19531C14.9349 7.2474 14.9531 7.29948 14.9688 7.35156C14.9844 7.39844 14.9974 7.42969 15.0078 7.44531V9.01562C15.0078 9.03125 15.0026 9.0625 14.9922 9.10938C14.987 9.15104 14.9766 9.20052 14.9609 9.25781C14.9505 9.3151 14.9375 9.3724 14.9219 9.42969C14.9115 9.48177 14.901 9.52344 14.8906 9.55469C14.8906 9.5651 14.875 9.60156 14.8438 9.66406C14.8177 9.72656 14.8021 9.76302 14.7969 9.77344C14.7604 9.86198 14.7344 9.95573 14.7188 10.0547C14.7083 10.1536 14.6745 10.2396 14.6172 10.3125C14.6172 10.3177 14.6016 10.3359 14.5703 10.3672C14.5547 10.3828 14.5391 10.401 14.5234 10.4219C14.4401 10.526 14.3672 10.6484 14.3047 10.7891C14.2474 10.9297 14.1719 11.0417 14.0781 11.125C13.9844 11.2188 13.875 11.2969 13.75 11.3594C13.625 11.4167 13.5234 11.487 13.4453 11.5703C13.4349 11.5703 13.4141 11.5833 13.3828 11.6094C13.3568 11.6354 13.3281 11.6641 13.2969 11.6953C13.2708 11.7266 13.2448 11.7578 13.2188 11.7891C13.1927 11.8151 13.1771 11.8307 13.1719 11.8359C13.1562 11.8411 13.1276 11.8516 13.0859 11.8672C13.0443 11.8828 12.9974 11.901 12.9453 11.9219C12.8932 11.9375 12.8411 11.9531 12.7891 11.9688C12.737 11.9844 12.6979 11.9948 12.6719 12C12.6615 12 12.625 12.0026 12.5625 12.0078C12.5052 12.0182 12.4401 12.0286 12.3672 12.0391C12.2943 12.0547 12.2188 12.0677 12.1406 12.0781C12.0677 12.0938 12.0104 12.1042 11.9688 12.1094H11.9141H11.8594C11.8229 12.1094 11.7578 12.1068 11.6641 12.1016C11.5703 12.0964 11.4714 12.0885 11.3672 12.0781C11.263 12.0729 11.1641 12.0677 11.0703 12.0625C10.9818 12.0573 10.9219 12.0547 10.8906 12.0547ZM16.4766 12.0547C16.4036 12.0339 16.3568 11.9948 16.3359 11.9375C16.3203 11.8802 16.3125 11.8281 16.3125 11.7812V11.7188C16.3125 11.6927 16.3151 11.6693 16.3203 11.6484C16.3255 11.6224 16.3411 11.5964 16.3672 11.5703C16.388 11.5547 16.4297 11.5339 16.4922 11.5078C16.5547 11.4766 16.6198 11.4427 16.6875 11.4062C16.7604 11.3698 16.8255 11.3359 16.8828 11.3047C16.9453 11.2682 16.9896 11.2422 17.0156 11.2266C17.1719 11.138 17.2734 11.0078 17.3203 10.8359C17.3672 10.6641 17.3906 10.4922 17.3906 10.3203V10.2578C17.3906 10.2526 17.3854 10.2344 17.375 10.2031C17.3646 10.1667 17.3516 10.1302 17.3359 10.0938C17.3255 10.0573 17.3151 10.0234 17.3047 9.99219C17.2943 9.95573 17.2891 9.93229 17.2891 9.92188C17.2891 9.90625 17.2943 9.8724 17.3047 9.82031C17.3203 9.76302 17.3333 9.72396 17.3438 9.70312V7.17188C17.3438 6.95833 17.2917 6.79167 17.1875 6.67188C17.0885 6.54688 16.9766 6.4401 16.8516 6.35156C16.7318 6.25781 16.6198 6.16146 16.5156 6.0625C16.4167 5.96354 16.3672 5.83073 16.3672 5.66406C16.3672 5.61719 16.3698 5.56771 16.375 5.51562C16.3854 5.45833 16.4193 5.41146 16.4766 5.375C16.6224 5.38542 16.7552 5.3776 16.875 5.35156C17 5.32552 17.1328 5.3125 17.2734 5.3125C17.362 5.3125 17.4349 5.31771 17.4922 5.32812C17.5547 5.33854 17.6354 5.3724 17.7344 5.42969C17.7917 5.46615 17.8438 5.52604 17.8906 5.60938C17.9427 5.6875 17.9974 5.75 18.0547 5.79688C18.0755 5.82812 18.1016 5.85156 18.1328 5.86719C18.1693 5.88281 18.2031 5.89583 18.2344 5.90625C18.2708 5.91667 18.3047 5.93229 18.3359 5.95312C18.3672 5.96875 18.3958 5.99219 18.4219 6.02344C18.526 6.14323 18.625 6.27083 18.7188 6.40625C18.8177 6.53646 18.9219 6.66146 19.0312 6.78125C19.0469 6.79688 19.0807 6.83594 19.1328 6.89844C19.1849 6.95573 19.2422 7.02083 19.3047 7.09375C19.3672 7.16146 19.4271 7.22917 19.4844 7.29688C19.5469 7.36458 19.5938 7.41406 19.625 7.44531C19.6302 7.45052 19.6432 7.46354 19.6641 7.48438C19.6849 7.5 19.7083 7.52083 19.7344 7.54688C19.7604 7.56771 19.7839 7.58854 19.8047 7.60938C19.8255 7.63021 19.8385 7.64323 19.8438 7.64844C19.8542 7.65885 19.8724 7.6875 19.8984 7.73438C19.9245 7.77604 19.9505 7.82292 19.9766 7.875C20.0078 7.92188 20.0365 7.96615 20.0625 8.00781C20.0885 8.04948 20.1042 8.07292 20.1094 8.07812C20.2656 8.3125 20.4453 8.51042 20.6484 8.67188C20.8516 8.82812 21.0677 8.97396 21.2969 9.10938C21.3073 9.11979 21.3333 9.14062 21.375 9.17188C21.4219 9.20312 21.4505 9.22135 21.4609 9.22656H21.5859C21.6536 9.22656 21.6953 9.20573 21.7109 9.16406C21.7266 9.1224 21.7344 9.07292 21.7344 9.01562V8.96094C21.7344 8.8776 21.7318 8.80729 21.7266 8.75C21.7214 8.6875 21.7057 8.61198 21.6797 8.52344C21.6849 8.46094 21.6901 8.35677 21.6953 8.21094C21.7057 8.0651 21.7135 7.91146 21.7188 7.75C21.724 7.58854 21.7266 7.4375 21.7266 7.29688C21.7318 7.15625 21.7344 7.05729 21.7344 7V6.85156C21.7344 6.79948 21.724 6.73177 21.7031 6.64844C21.6875 6.5651 21.6641 6.48177 21.6328 6.39844C21.6016 6.3099 21.5651 6.23177 21.5234 6.16406C21.487 6.09635 21.4479 6.04948 21.4062 6.02344C21.349 5.98698 21.2839 5.95833 21.2109 5.9375C21.1432 5.91146 21.0781 5.88542 21.0156 5.85938C20.9531 5.82812 20.901 5.78906 20.8594 5.74219C20.8177 5.6901 20.7969 5.61458 20.7969 5.51562C20.7969 5.50521 20.7969 5.48958 20.7969 5.46875C20.8021 5.44271 20.8125 5.42969 20.8281 5.42969C20.8385 5.42448 20.8594 5.41927 20.8906 5.41406C20.9271 5.40885 20.9635 5.40365 21 5.39844C21.0417 5.39323 21.0807 5.38802 21.1172 5.38281C21.1536 5.3776 21.1797 5.375 21.1953 5.375C21.2005 5.36979 21.2266 5.35938 21.2734 5.34375C21.3255 5.32292 21.3568 5.3125 21.3672 5.3125H21.6641H21.7891C21.7943 5.3125 21.8125 5.30729 21.8438 5.29688C21.875 5.28646 21.9089 5.27604 21.9453 5.26562C21.987 5.25521 22.0234 5.24479 22.0547 5.23438C22.0911 5.22396 22.1146 5.21875 22.125 5.21875H22.1406H22.1797C22.4036 5.27083 22.6302 5.3125 22.8594 5.34375C23.0938 5.375 23.3307 5.38542 23.5703 5.375C23.6328 5.39583 23.6693 5.41927 23.6797 5.44531C23.6901 5.47135 23.6953 5.50781 23.6953 5.55469C23.6953 5.70573 23.6484 5.8125 23.5547 5.875C23.4609 5.93229 23.3542 5.97396 23.2344 6C23.1146 6.02604 22.9922 6.05208 22.8672 6.07812C22.7474 6.10417 22.6615 6.15885 22.6094 6.24219C22.5156 6.38281 22.4557 6.53906 22.4297 6.71094C22.4089 6.8776 22.3984 7.04948 22.3984 7.22656V7.55469V7.75781C22.3984 7.76823 22.388 7.80469 22.3672 7.86719C22.3516 7.92448 22.3385 7.96354 22.3281 7.98438V8.02344V8.07812C22.3385 8.08854 22.3516 8.11719 22.3672 8.16406C22.388 8.21094 22.3984 8.24219 22.3984 8.25781C22.3984 8.26823 22.3984 8.30208 22.3984 8.35938C22.4036 8.41667 22.4089 8.47917 22.4141 8.54688C22.4193 8.61458 22.4245 8.67708 22.4297 8.73438C22.4349 8.79167 22.4401 8.82552 22.4453 8.83594C22.4453 8.84635 22.4505 8.86458 22.4609 8.89062C22.4714 8.91667 22.4818 8.94531 22.4922 8.97656C22.5078 9.00781 22.5208 9.03646 22.5312 9.0625C22.5417 9.08854 22.5469 9.10417 22.5469 9.10938L22.5547 9.16406C22.5547 9.26823 22.526 9.3724 22.4688 9.47656C22.4115 9.57552 22.3828 9.67708 22.3828 9.78125C22.3828 9.82812 22.3854 9.86719 22.3906 9.89844C22.3958 9.92448 22.4141 9.95312 22.4453 9.98438C22.4505 10.0104 22.4557 10.0573 22.4609 10.125C22.4661 10.1927 22.4714 10.263 22.4766 10.3359C22.4818 10.4089 22.4844 10.4792 22.4844 10.5469C22.4896 10.6146 22.4922 10.6615 22.4922 10.6875V10.9219C22.4922 11.0625 22.4688 11.1901 22.4219 11.3047C22.375 11.4193 22.2943 11.5208 22.1797 11.6094C22.1641 11.6094 22.1432 11.6198 22.1172 11.6406C22.0911 11.6562 22.0703 11.6641 22.0547 11.6641H22.0469H22C21.9896 11.6641 21.9479 11.6562 21.875 11.6406C21.8073 11.6198 21.7604 11.6094 21.7344 11.6094C21.7083 11.5885 21.6641 11.5521 21.6016 11.5C21.5443 11.4427 21.4792 11.3828 21.4062 11.3203C21.3385 11.2578 21.2734 11.1979 21.2109 11.1406C21.1536 11.0833 21.1146 11.0443 21.0938 11.0234C21.0833 11.013 21.0677 10.9948 21.0469 10.9688C21.026 10.9375 21.0026 10.9062 20.9766 10.875C20.9557 10.8438 20.9323 10.8151 20.9062 10.7891C20.8854 10.7578 20.8724 10.737 20.8672 10.7266C20.8255 10.6797 20.7656 10.6432 20.6875 10.6172C20.6094 10.5911 20.5651 10.5599 20.5547 10.5234C20.5286 10.4557 20.5052 10.3958 20.4844 10.3438C20.4688 10.2865 20.4505 10.2344 20.4297 10.1875C20.4141 10.1354 20.3932 10.0859 20.3672 10.0391C20.3411 9.98698 20.3047 9.93229 20.2578 9.875C20.2318 9.83854 20.1823 9.77865 20.1094 9.69531C20.0417 9.60677 19.9661 9.51823 19.8828 9.42969C19.8047 9.34115 19.7292 9.25781 19.6562 9.17969C19.5833 9.10156 19.5312 9.04688 19.5 9.01562C19.4219 8.92708 19.3438 8.84635 19.2656 8.77344C19.1875 8.70052 19.1094 8.63021 19.0312 8.5625C18.9531 8.49479 18.8724 8.42708 18.7891 8.35938C18.7057 8.29167 18.6224 8.21615 18.5391 8.13281C18.5234 8.11719 18.4948 8.08594 18.4531 8.03906C18.4167 7.99219 18.3776 7.94271 18.3359 7.89062C18.2943 7.83854 18.2552 7.79167 18.2188 7.75C18.1823 7.70833 18.1562 7.6875 18.1406 7.6875C18.0729 7.6875 18.0234 7.72396 17.9922 7.79688C17.9661 7.86979 17.9479 7.95312 17.9375 8.04688C17.9271 8.14062 17.9193 8.23438 17.9141 8.32812C17.9141 8.42188 17.9036 8.48698 17.8828 8.52344C17.8724 8.53385 17.8438 8.5599 17.7969 8.60156C17.7552 8.64323 17.7344 8.66667 17.7344 8.67188C17.724 8.68229 17.7188 8.70312 17.7188 8.73438C17.7188 8.76562 17.7188 8.79167 17.7188 8.8125C17.7188 8.91667 17.737 9.01823 17.7734 9.11719C17.8099 9.21094 17.8281 9.3125 17.8281 9.42188C17.8281 9.46354 17.8203 9.50521 17.8047 9.54688C17.7943 9.58333 17.7891 9.63021 17.7891 9.6875C17.7891 9.83854 17.8151 9.97917 17.8672 10.1094C17.9245 10.2344 17.9688 10.3724 18 10.5234V10.6328V10.6875C18 10.6979 18.0104 10.7135 18.0312 10.7344C18.0521 10.7552 18.0729 10.7786 18.0938 10.8047C18.1198 10.8255 18.1432 10.8464 18.1641 10.8672C18.1901 10.888 18.2031 10.901 18.2031 10.9062C18.2135 10.9167 18.224 10.9375 18.2344 10.9688C18.25 10.9948 18.263 11.013 18.2734 11.0234C18.2786 11.0339 18.2839 11.0417 18.2891 11.0469C18.2943 11.0625 18.3073 11.0703 18.3281 11.0703C18.4375 11.1276 18.5443 11.1745 18.6484 11.2109C18.7578 11.2474 18.862 11.2891 18.9609 11.3359C19.0599 11.3776 19.1536 11.4271 19.2422 11.4844C19.3359 11.5417 19.4219 11.6198 19.5 11.7188C19.5104 11.724 19.5156 11.7344 19.5156 11.75C19.5156 11.7656 19.5156 11.776 19.5156 11.7812C19.5156 11.8281 19.487 11.8698 19.4297 11.9062C19.3776 11.9375 19.3333 11.9635 19.2969 11.9844C19.2656 11.9896 19.2109 11.9948 19.1328 12C19.0547 12.0052 18.9714 12.0104 18.8828 12.0156C18.7995 12.026 18.7188 12.0339 18.6406 12.0391C18.5625 12.0443 18.5078 12.0495 18.4766 12.0547C18.4609 12.0547 18.4323 12.0547 18.3906 12.0547C18.3542 12.0599 18.3151 12.0651 18.2734 12.0703C18.237 12.0755 18.2005 12.0807 18.1641 12.0859C18.1328 12.0964 18.1094 12.1042 18.0938 12.1094C18.0885 12.1094 18.0807 12.112 18.0703 12.1172C18.0651 12.1224 18.0573 12.1276 18.0469 12.1328L18 12.1484C17.9948 12.1484 17.9661 12.1406 17.9141 12.125C17.8672 12.1146 17.8385 12.1094 17.8281 12.1094H17.3906C17.3594 12.1042 17.2995 12.0964 17.2109 12.0859C17.1224 12.0807 17.0286 12.0755 16.9297 12.0703C16.8359 12.0651 16.7448 12.0599 16.6562 12.0547C16.5677 12.0547 16.5078 12.0547 16.4766 12.0547ZM26.8359 8.57031C26.8359 8.66406 26.8542 8.73958 26.8906 8.79688C26.9323 8.85417 26.9818 8.90104 27.0391 8.9375C27.0964 8.96875 27.1615 8.98958 27.2344 9C27.3073 9.01042 27.3802 9.01562 27.4531 9.01562H27.7109C27.7682 8.98958 27.8021 8.96094 27.8125 8.92969C27.8281 8.89844 27.8359 8.86198 27.8359 8.82031C27.8307 8.8151 27.8281 8.8099 27.8281 8.80469V8.78125C27.8229 8.77083 27.8203 8.75781 27.8203 8.74219C27.8151 8.73177 27.7995 8.70833 27.7734 8.67188C27.7526 8.63542 27.7292 8.59635 27.7031 8.55469C27.6823 8.51302 27.6589 8.47396 27.6328 8.4375C27.612 8.40104 27.599 8.3776 27.5938 8.36719C27.5729 8.3151 27.5573 8.26042 27.5469 8.20312C27.5365 8.14583 27.5234 8.09115 27.5078 8.03906C27.4922 7.98177 27.4714 7.92969 27.4453 7.88281C27.4193 7.83594 27.3776 7.79427 27.3203 7.75781H27.25C27.1875 7.75781 27.1406 7.77344 27.1094 7.80469C27.0833 7.83073 27.0625 7.86719 27.0469 7.91406C27.0365 7.95573 27.0286 8.0026 27.0234 8.05469C27.0234 8.10677 27.0182 8.15625 27.0078 8.20312C26.9922 8.24479 26.974 8.28125 26.9531 8.3125C26.9375 8.33854 26.9193 8.36458 26.8984 8.39062C26.8828 8.41146 26.8672 8.4375 26.8516 8.46875C26.8411 8.49479 26.8359 8.52865 26.8359 8.57031ZM23.9141 11.5938C23.9141 11.4635 23.9479 11.3698 24.0156 11.3125C24.0833 11.25 24.1667 11.2057 24.2656 11.1797C24.3646 11.1484 24.4661 11.125 24.5703 11.1094C24.6797 11.0885 24.7708 11.0573 24.8438 11.0156L24.8906 10.9688C24.9219 10.9375 24.9375 10.9219 24.9375 10.9219C25.0208 10.8542 25.0885 10.7943 25.1406 10.7422C25.1979 10.6849 25.2448 10.6276 25.2812 10.5703C25.3229 10.5078 25.3568 10.4401 25.3828 10.3672C25.4141 10.2943 25.4479 10.2031 25.4844 10.0938C25.4844 10.0833 25.4922 10.0599 25.5078 10.0234C25.5234 9.98698 25.5417 9.94792 25.5625 9.90625C25.5833 9.86458 25.6016 9.82552 25.6172 9.78906C25.638 9.7526 25.651 9.72917 25.6562 9.71875C25.6562 9.70312 25.6562 9.67188 25.6562 9.625C25.6615 9.57812 25.6667 9.52865 25.6719 9.47656C25.6771 9.41927 25.6823 9.36719 25.6875 9.32031C25.6927 9.27344 25.6953 9.24219 25.6953 9.22656C25.6953 9.22656 25.7005 9.21615 25.7109 9.19531C25.7214 9.17448 25.7344 9.15365 25.75 9.13281C25.7656 9.10677 25.7786 9.08333 25.7891 9.0625C25.7995 9.03646 25.8047 9.02083 25.8047 9.01562C25.8099 9 25.8177 8.96354 25.8281 8.90625C25.8385 8.84896 25.849 8.78646 25.8594 8.71875C25.875 8.65104 25.888 8.58854 25.8984 8.53125C25.9089 8.46875 25.9193 8.43229 25.9297 8.42188C25.9766 8.20833 26.0469 7.99479 26.1406 7.78125C26.2344 7.56771 26.3255 7.36198 26.4141 7.16406C26.4141 7.15365 26.4193 7.1276 26.4297 7.08594C26.4453 7.03906 26.4583 7.01042 26.4688 7C26.474 6.97396 26.4844 6.93229 26.5 6.875C26.5156 6.8125 26.5312 6.75 26.5469 6.6875C26.5677 6.625 26.5859 6.56771 26.6016 6.51562C26.6172 6.45833 26.6276 6.42188 26.6328 6.40625C26.6328 6.40104 26.6354 6.38542 26.6406 6.35938C26.6458 6.33333 26.651 6.30469 26.6562 6.27344C26.6615 6.24219 26.6667 6.21354 26.6719 6.1875C26.6771 6.16146 26.6823 6.14323 26.6875 6.13281C26.6875 6.1224 26.6953 6.09635 26.7109 6.05469C26.7318 6.00781 26.7422 5.97917 26.7422 5.96875C26.7682 5.93229 26.7943 5.89583 26.8203 5.85938C26.8464 5.83333 26.8698 5.80469 26.8906 5.77344C26.9167 5.74219 26.9375 5.71875 26.9531 5.70312C26.9688 5.6875 27.0052 5.66406 27.0625 5.63281C27.125 5.59635 27.1927 5.5599 27.2656 5.52344C27.3385 5.48177 27.4062 5.44792 27.4688 5.42188C27.5365 5.39062 27.5781 5.375 27.5938 5.375C27.6667 5.375 27.737 5.40885 27.8047 5.47656C27.8776 5.54427 27.9427 5.63021 28 5.73438C28.0625 5.83854 28.1172 5.95573 28.1641 6.08594C28.2161 6.21094 28.263 6.33594 28.3047 6.46094C28.3464 6.58073 28.3802 6.6901 28.4062 6.78906C28.4323 6.88281 28.4531 6.95312 28.4688 7C28.4688 7.01042 28.4766 7.03906 28.4922 7.08594C28.513 7.1276 28.5234 7.15365 28.5234 7.16406C28.6276 7.39844 28.7135 7.64583 28.7812 7.90625C28.849 8.16667 28.9245 8.42708 29.0078 8.6875V8.90625C29.0234 8.97396 29.0599 9.03125 29.1172 9.07812C29.1745 9.11979 29.2161 9.16927 29.2422 9.22656C29.2422 9.24219 29.25 9.27604 29.2656 9.32812C29.2865 9.38021 29.3073 9.4375 29.3281 9.5C29.3542 9.5625 29.3776 9.61979 29.3984 9.67188C29.4245 9.72396 29.4427 9.75781 29.4531 9.77344C29.4583 9.78385 29.4714 9.8151 29.4922 9.86719C29.5182 9.91927 29.5469 9.97656 29.5781 10.0391C29.6094 10.1016 29.638 10.1589 29.6641 10.2109C29.6953 10.263 29.7161 10.2969 29.7266 10.3125C29.7266 10.3177 29.7292 10.3359 29.7344 10.3672C29.7448 10.3932 29.7552 10.4219 29.7656 10.4531C29.776 10.4844 29.7865 10.513 29.7969 10.5391C29.8073 10.5651 29.8151 10.5781 29.8203 10.5781C29.8516 10.651 29.9062 10.7292 29.9844 10.8125C30.0677 10.8958 30.1484 10.9818 30.2266 11.0703C30.3099 11.1536 30.3828 11.2344 30.4453 11.3125C30.5078 11.3906 30.5391 11.4583 30.5391 11.5156C30.5391 11.5938 30.5234 11.6745 30.4922 11.7578C30.4609 11.8359 30.4036 11.8984 30.3203 11.9453C30.1536 11.9557 29.9792 11.9766 29.7969 12.0078C29.6198 12.0391 29.4479 12.0547 29.2812 12.0547H29.1875C29.1406 12.0495 29.0599 12.0391 28.9453 12.0234C28.8359 12.013 28.7188 12.0026 28.5938 11.9922C28.474 11.9818 28.3594 11.974 28.25 11.9688C28.1458 11.9583 28.0755 11.9505 28.0391 11.9453C27.8932 11.8464 27.8203 11.7161 27.8203 11.5547C27.8203 11.4297 27.8516 11.3411 27.9141 11.2891C27.9766 11.237 28.0469 11.1901 28.125 11.1484C28.2031 11.1068 28.2734 11.0521 28.3359 10.9844C28.3984 10.9167 28.4297 10.8047 28.4297 10.6484C28.4297 10.4922 28.4115 10.3698 28.375 10.2812C28.3385 10.1927 28.2839 10.1276 28.2109 10.0859C28.1432 10.0391 28.0599 10.0104 27.9609 10C27.862 9.98958 27.7526 9.98438 27.6328 9.98438H27.4141H27.0078C26.9401 10 26.8672 10.026 26.7891 10.0625C26.7161 10.0938 26.6458 10.1354 26.5781 10.1875C26.5156 10.2396 26.4635 10.2995 26.4219 10.3672C26.3802 10.4297 26.3594 10.5 26.3594 10.5781C26.3594 10.6771 26.3828 10.763 26.4297 10.8359C26.4818 10.9089 26.5391 10.9792 26.6016 11.0469C26.6641 11.1146 26.7188 11.1823 26.7656 11.25C26.8177 11.3177 26.8438 11.3958 26.8438 11.4844C26.8438 11.625 26.8203 11.7318 26.7734 11.8047C26.7318 11.8724 26.6745 11.9219 26.6016 11.9531C26.5286 11.9792 26.4401 11.9922 26.3359 11.9922C26.237 11.9922 26.1328 11.9948 26.0234 12C26.0026 12 25.9427 12.0026 25.8438 12.0078C25.75 12.013 25.6484 12.0182 25.5391 12.0234C25.4297 12.0339 25.3255 12.0417 25.2266 12.0469C25.1276 12.0521 25.0677 12.0547 25.0469 12.0547H24.9922H24.9375C24.901 12.0495 24.849 12.0417 24.7812 12.0312C24.7135 12.026 24.6432 12.0208 24.5703 12.0156C24.5026 12.0104 24.4401 12.0052 24.3828 12C24.3307 12 24.2969 12 24.2812 12C24.1927 11.9792 24.1094 11.9323 24.0312 11.8594C23.9531 11.7865 23.9141 11.6979 23.9141 11.5938ZM33.6484 8.46094V8.46875C33.6536 8.48438 33.6641 8.50781 33.6797 8.53906C33.7005 8.57031 33.7188 8.60417 33.7344 8.64062C33.75 8.67708 33.7656 8.71094 33.7812 8.74219C33.7969 8.77344 33.8073 8.79688 33.8125 8.8125H34H34.1953C34.2266 8.80729 34.2839 8.79688 34.3672 8.78125C34.4505 8.76562 34.5391 8.75 34.6328 8.73438C34.7266 8.71354 34.8151 8.69531 34.8984 8.67969C34.9818 8.65885 35.0391 8.64323 35.0703 8.63281C35.138 8.58073 35.2005 8.51562 35.2578 8.4375C35.3203 8.35417 35.3724 8.26562 35.4141 8.17188C35.4557 8.07812 35.4896 7.98177 35.5156 7.88281C35.5417 7.78385 35.5547 7.69271 35.5547 7.60938C35.5547 7.59896 35.5547 7.58854 35.5547 7.57812C35.5547 7.5625 35.5521 7.55469 35.5469 7.55469C35.5469 7.54427 35.5365 7.50781 35.5156 7.44531C35.5 7.38281 35.4922 7.34635 35.4922 7.33594C35.4922 7.32031 35.4896 7.28906 35.4844 7.24219C35.4844 7.19531 35.4818 7.14583 35.4766 7.09375C35.4714 7.04167 35.4635 6.99219 35.4531 6.94531C35.4479 6.89844 35.4427 6.86719 35.4375 6.85156C35.4375 6.84115 35.4323 6.82292 35.4219 6.79688C35.4115 6.77083 35.4036 6.7526 35.3984 6.74219C35.3724 6.71615 35.3307 6.67708 35.2734 6.625C35.2214 6.56771 35.1667 6.51042 35.1094 6.45312C35.0521 6.39583 34.9974 6.34375 34.9453 6.29688C34.8984 6.25 34.8672 6.21875 34.8516 6.20312C34.8411 6.19271 34.8073 6.17448 34.75 6.14844C34.6927 6.1224 34.651 6.10417 34.625 6.09375C34.6146 6.08854 34.5964 6.08073 34.5703 6.07031C34.5443 6.05469 34.5156 6.04167 34.4844 6.03125C34.4531 6.02083 34.4245 6.01042 34.3984 6C34.3724 5.98958 34.3568 5.98438 34.3516 5.98438H34.3125H34.2578C34.2422 5.98958 34.2161 6.0026 34.1797 6.02344C34.1484 6.03906 34.112 6.0599 34.0703 6.08594C34.0286 6.10677 33.987 6.13021 33.9453 6.15625C33.9089 6.17708 33.8828 6.19271 33.8672 6.20312C33.7943 6.26042 33.7474 6.32812 33.7266 6.40625C33.7057 6.47917 33.6953 6.5599 33.6953 6.64844C33.6953 6.69531 33.6953 6.74479 33.6953 6.79688C33.7005 6.84375 33.7031 6.88802 33.7031 6.92969V7.01562C33.7031 7.02604 33.6927 7.05208 33.6719 7.09375C33.6562 7.13542 33.6484 7.16146 33.6484 7.17188V7.21875C33.6484 7.32292 33.6589 7.42448 33.6797 7.52344C33.7057 7.61719 33.7188 7.71615 33.7188 7.82031C33.7188 7.92448 33.7057 8.02865 33.6797 8.13281C33.6589 8.23177 33.6484 8.34115 33.6484 8.46094ZM31.9766 12.2734C31.9297 12.2578 31.8724 12.224 31.8047 12.1719C31.737 12.125 31.7031 12.0807 31.7031 12.0391C31.7031 11.9297 31.724 11.8516 31.7656 11.8047C31.8125 11.7526 31.8672 11.7109 31.9297 11.6797C31.9922 11.6432 32.0573 11.6068 32.125 11.5703C32.1927 11.5339 32.25 11.474 32.2969 11.3906C32.3021 11.3854 32.3125 11.3672 32.3281 11.3359C32.3438 11.2995 32.3594 11.2604 32.375 11.2188C32.3958 11.1719 32.4141 11.1276 32.4297 11.0859C32.4453 11.0391 32.4557 11.0026 32.4609 10.9766C32.4661 10.9609 32.474 10.9349 32.4844 10.8984C32.5 10.862 32.513 10.8229 32.5234 10.7812C32.5339 10.7396 32.5417 10.7005 32.5469 10.6641C32.5573 10.6224 32.5651 10.5938 32.5703 10.5781C32.5755 10.5781 32.5807 10.5651 32.5859 10.5391C32.5911 10.513 32.5964 10.487 32.6016 10.4609C32.6068 10.4297 32.612 10.401 32.6172 10.375C32.6224 10.3438 32.625 10.3229 32.625 10.3125C32.6354 10.3021 32.6484 10.2682 32.6641 10.2109C32.6849 10.1536 32.6953 10.1198 32.6953 10.1094C32.6797 10.0938 32.6562 10.0573 32.625 10C32.5938 9.9375 32.5755 9.90104 32.5703 9.89062V9.8125C32.5703 9.75 32.5781 9.6901 32.5938 9.63281C32.6146 9.57031 32.625 9.50781 32.625 9.44531C32.625 9.22656 32.6068 9.01562 32.5703 8.8125C32.5339 8.60417 32.5156 8.38281 32.5156 8.14844C32.5156 8.14323 32.5182 8.125 32.5234 8.09375C32.5286 8.0625 32.5339 8.02865 32.5391 7.99219C32.5495 7.95573 32.5573 7.92188 32.5625 7.89062C32.5677 7.85417 32.5703 7.83073 32.5703 7.82031V7.25781V6.70312C32.5599 6.60938 32.5208 6.52865 32.4531 6.46094C32.3906 6.39323 32.3229 6.34375 32.25 6.3125C32.224 6.29688 32.1797 6.27604 32.1172 6.25C32.0547 6.22396 31.987 6.19792 31.9141 6.17188C31.8464 6.14062 31.7812 6.11458 31.7188 6.09375C31.6562 6.06771 31.612 6.04948 31.5859 6.03906C31.5703 6.0026 31.5469 5.94792 31.5156 5.875C31.4896 5.79688 31.4818 5.74479 31.4922 5.71875C31.4922 5.70833 31.5052 5.6901 31.5312 5.66406C31.5573 5.63802 31.5755 5.61458 31.5859 5.59375C31.6068 5.58333 31.6432 5.56771 31.6953 5.54688C31.7526 5.52604 31.7917 5.51042 31.8125 5.5H32.1953H32.5703C32.5859 5.5 32.6198 5.5026 32.6719 5.50781C32.724 5.51302 32.7786 5.52083 32.8359 5.53125C32.8984 5.53646 32.9557 5.54167 33.0078 5.54688C33.0599 5.55208 33.0938 5.55469 33.1094 5.55469H33.6016C33.612 5.55469 33.6328 5.5599 33.6641 5.57031C33.6953 5.58073 33.7266 5.59375 33.7578 5.60938C33.7943 5.61979 33.8281 5.63021 33.8594 5.64062C33.8906 5.65104 33.9115 5.65885 33.9219 5.66406H34.0156C34.2188 5.66406 34.4167 5.64583 34.6094 5.60938C34.8021 5.57292 34.9974 5.55469 35.1953 5.55469H35.5469C35.6615 5.5651 35.7604 5.60677 35.8438 5.67969C35.9323 5.7474 36.0182 5.8099 36.1016 5.86719C36.3411 6.08073 36.526 6.30469 36.6562 6.53906C36.7865 6.77344 36.8516 7.0625 36.8516 7.40625C36.8516 7.57292 36.8438 7.72396 36.8281 7.85938C36.8177 7.98958 36.7734 8.1276 36.6953 8.27344C36.6797 8.29948 36.6536 8.33594 36.6172 8.38281C36.5807 8.42969 36.5443 8.47917 36.5078 8.53125C36.4766 8.57812 36.4453 8.6224 36.4141 8.66406C36.388 8.70573 36.3724 8.73177 36.3672 8.74219C36.3307 8.78906 36.2865 8.83333 36.2344 8.875C36.1875 8.91667 36.1406 8.96094 36.0938 9.00781C36.0521 9.04948 36.0156 9.09635 35.9844 9.14844C35.9531 9.19531 35.9375 9.25 35.9375 9.3125C35.9375 9.39062 35.9505 9.47396 35.9766 9.5625C36.0078 9.65104 36.0495 9.72135 36.1016 9.77344C36.2005 9.89323 36.3177 10 36.4531 10.0938C36.5885 10.1875 36.7005 10.2995 36.7891 10.4297C36.8047 10.4297 36.8177 10.4453 36.8281 10.4766L36.8438 10.5234C36.9323 10.6589 37.013 10.7786 37.0859 10.8828C37.1589 10.9818 37.263 11.0833 37.3984 11.1875C37.4453 11.224 37.5026 11.2604 37.5703 11.2969C37.638 11.3333 37.7031 11.3724 37.7656 11.4141C37.8281 11.4557 37.8802 11.5078 37.9219 11.5703C37.9688 11.6276 37.9922 11.6979 37.9922 11.7812C37.9922 11.8542 37.9583 11.9245 37.8906 11.9922C37.8229 12.0599 37.7422 12.1172 37.6484 12.1641C37.5599 12.2161 37.4688 12.2552 37.375 12.2812C37.2812 12.3125 37.2083 12.3281 37.1562 12.3281H36.9062C36.901 12.3281 36.875 12.3177 36.8281 12.2969C36.7812 12.2812 36.7552 12.2734 36.75 12.2734H36.4219C36.3438 12.2682 36.2708 12.2161 36.2031 12.1172C36.1354 12.0182 36.0729 11.9062 36.0156 11.7812C35.9583 11.651 35.9062 11.526 35.8594 11.4062C35.8177 11.2812 35.7839 11.1875 35.7578 11.125C35.7578 11.1094 35.7474 11.0833 35.7266 11.0469C35.7109 11.0052 35.6901 10.9635 35.6641 10.9219C35.6432 10.875 35.6224 10.8307 35.6016 10.7891C35.5807 10.7474 35.5625 10.7188 35.5469 10.7031C35.5104 10.6302 35.4479 10.5781 35.3594 10.5469C35.2708 10.5104 35.1927 10.4714 35.125 10.4297C35.1094 10.4297 35.0964 10.4193 35.0859 10.3984C35.0807 10.388 35.0755 10.3802 35.0703 10.375C35.0651 10.3698 35.0547 10.3568 35.0391 10.3359C35.0234 10.3099 35.0052 10.2865 34.9844 10.2656C34.9688 10.2396 34.9505 10.2161 34.9297 10.1953C34.9141 10.1745 34.9036 10.1641 34.8984 10.1641C34.8932 10.1589 34.888 10.1562 34.8828 10.1562C34.8776 10.151 34.8724 10.1432 34.8672 10.1328C34.862 10.1276 34.8568 10.1198 34.8516 10.1094C34.8411 10.1042 34.8177 10.0938 34.7812 10.0781C34.75 10.0573 34.7161 10.0391 34.6797 10.0234C34.6432 10.0026 34.6094 9.98698 34.5781 9.97656C34.5521 9.96094 34.5365 9.95052 34.5312 9.94531C34.5208 9.9349 34.5 9.91406 34.4688 9.88281C34.4375 9.85156 34.4167 9.83073 34.4062 9.82031C34.3333 9.77865 34.2526 9.74479 34.1641 9.71875C34.0755 9.6875 33.9896 9.67188 33.9062 9.67188H33.8672L33.8359 9.6875C33.8203 9.69792 33.8125 9.70833 33.8125 9.71875C33.8073 9.73438 33.7969 9.75781 33.7812 9.78906C33.7656 9.8151 33.75 9.84635 33.7344 9.88281C33.7188 9.91406 33.7005 9.94531 33.6797 9.97656C33.6641 10.0026 33.6536 10.0234 33.6484 10.0391V10.3906V10.6719C33.6484 10.776 33.6536 10.8802 33.6641 10.9844C33.6797 11.0833 33.7161 11.1693 33.7734 11.2422C33.7734 11.2526 33.7995 11.2917 33.8516 11.3594C33.9089 11.4271 33.9557 11.4792 33.9922 11.5156C34.0443 11.5729 34.1042 11.6146 34.1719 11.6406C34.2396 11.6667 34.3047 11.6953 34.3672 11.7266C34.4297 11.7578 34.4818 11.7995 34.5234 11.8516C34.5651 11.8984 34.5859 11.974 34.5859 12.0781C34.5859 12.1406 34.5599 12.1797 34.5078 12.1953C34.4557 12.2109 34.401 12.2188 34.3438 12.2188H34.2344H34.1953C34.1745 12.2188 34.1354 12.2214 34.0781 12.2266C34.0208 12.2318 33.9583 12.237 33.8906 12.2422C33.8281 12.2474 33.7682 12.2526 33.7109 12.2578C33.6589 12.263 33.6224 12.2682 33.6016 12.2734C33.5911 12.2734 33.5729 12.276 33.5469 12.2812C33.526 12.2865 33.5 12.2917 33.4688 12.2969C33.4375 12.3073 33.4089 12.3151 33.3828 12.3203C33.3568 12.3255 33.3385 12.3281 33.3281 12.3281H33.2969H33.2734C33.2682 12.3281 33.25 12.3255 33.2188 12.3203C33.1875 12.3151 33.1536 12.3073 33.1172 12.2969C33.0859 12.2917 33.0521 12.2865 33.0156 12.2812C32.9844 12.276 32.9661 12.2734 32.9609 12.2734C32.9193 12.2734 32.8516 12.2708 32.7578 12.2656C32.6641 12.2604 32.5651 12.2578 32.4609 12.2578C32.3568 12.2578 32.2578 12.2604 32.1641 12.2656C32.0755 12.2708 32.013 12.2734 31.9766 12.2734ZM42.3984 11.9297C42.3255 11.9297 42.2526 11.9427 42.1797 11.9688C42.112 11.9896 42.0417 12 41.9688 12H41.8594C41.8438 12 41.8125 11.9974 41.7656 11.9922C41.7188 11.987 41.6667 11.9818 41.6094 11.9766C41.5573 11.9661 41.5078 11.9583 41.4609 11.9531C41.4141 11.9479 41.3828 11.9453 41.3672 11.9453H41.25H40.9766C40.9505 11.9401 40.9115 11.9349 40.8594 11.9297C40.8073 11.9245 40.7526 11.9193 40.6953 11.9141C40.638 11.9036 40.5833 11.8958 40.5312 11.8906C40.4844 11.8854 40.4531 11.8802 40.4375 11.875C40.375 11.8698 40.3385 11.862 40.3281 11.8516C40.3177 11.8359 40.3125 11.8047 40.3125 11.7578C40.3125 11.6068 40.3411 11.5026 40.3984 11.4453C40.4557 11.388 40.526 11.3464 40.6094 11.3203C40.6927 11.2943 40.7786 11.2656 40.8672 11.2344C40.9609 11.1979 41.0391 11.125 41.1016 11.0156C41.1484 10.9115 41.1719 10.8047 41.1719 10.6953C41.1719 10.5859 41.1797 10.4792 41.1953 10.375C41.1953 10.3594 41.2005 10.3333 41.2109 10.2969C41.2214 10.2604 41.2344 10.2214 41.25 10.1797C41.2656 10.1328 41.2786 10.0911 41.2891 10.0547C41.2995 10.0182 41.3047 9.99479 41.3047 9.98438V9.91406C41.3047 9.89323 41.3047 9.8724 41.3047 9.85156C41.3099 9.83073 41.3125 9.8125 41.3125 9.79688C41.3125 9.78646 41.3125 9.77083 41.3125 9.75C41.3125 9.72396 41.3099 9.69792 41.3047 9.67188C41.3047 9.64583 41.3047 9.6224 41.3047 9.60156C41.3047 9.57552 41.3047 9.5599 41.3047 9.55469C41.3047 9.50781 41.3021 9.42448 41.2969 9.30469C41.2917 9.17969 41.2865 9.04688 41.2812 8.90625C41.276 8.76562 41.2708 8.63281 41.2656 8.50781C41.2604 8.38281 41.2552 8.29427 41.25 8.24219C41.2396 8.23177 41.2214 8.20052 41.1953 8.14844C41.1745 8.09635 41.1615 8.0599 41.1562 8.03906V8.01562C41.1562 7.97396 41.1615 7.9349 41.1719 7.89844C41.1875 7.86198 41.1953 7.82031 41.1953 7.77344V7.70312C41.1901 7.69271 41.1823 7.66146 41.1719 7.60938C41.1615 7.55208 41.151 7.48958 41.1406 7.42188C41.1302 7.35417 41.1198 7.29167 41.1094 7.23438C41.1042 7.17188 41.1016 7.13281 41.1016 7.11719C41.0911 7.09635 41.0859 7.05729 41.0859 7C41.0859 6.94271 41.0859 6.88281 41.0859 6.82031C41.0859 6.76302 41.0859 6.70573 41.0859 6.64844C41.0859 6.59115 41.0911 6.54948 41.1016 6.52344C41.0443 6.40365 40.9714 6.29948 40.8828 6.21094C40.7943 6.1224 40.6875 6.07812 40.5625 6.07812H40.4375C40.4219 6.08854 40.3932 6.10417 40.3516 6.125C40.3099 6.14583 40.2656 6.16927 40.2188 6.19531C40.1719 6.22135 40.1276 6.2474 40.0859 6.27344C40.0443 6.29427 40.0182 6.30729 40.0078 6.3125C39.9922 6.3125 39.9557 6.32031 39.8984 6.33594C39.8411 6.34635 39.8099 6.35156 39.8047 6.35156C39.7891 6.35156 39.7656 6.36198 39.7344 6.38281C39.7083 6.39844 39.6901 6.40625 39.6797 6.40625C39.6693 6.41667 39.6432 6.4375 39.6016 6.46875C39.5651 6.5 39.5417 6.51823 39.5312 6.52344C39.474 6.54948 39.4062 6.58073 39.3281 6.61719C39.25 6.65365 39.2057 6.67188 39.1953 6.67188H38.4219L38.3281 6.61719V6.51562C38.3281 6.41667 38.3385 6.32292 38.3594 6.23438C38.3854 6.14062 38.4167 6.05208 38.4531 5.96875C38.4896 5.88021 38.5286 5.79427 38.5703 5.71094C38.6172 5.6276 38.6589 5.53906 38.6953 5.44531C38.7214 5.39323 38.7474 5.33854 38.7734 5.28125C38.7995 5.22396 38.8281 5.17188 38.8594 5.125C38.8958 5.07812 38.9375 5.03906 38.9844 5.00781C39.0312 4.97656 39.0911 4.96094 39.1641 4.96094C39.2682 4.96094 39.3646 4.98438 39.4531 5.03125C39.5469 5.07292 39.6406 5.09896 39.7344 5.10938C39.901 5.13542 40.0729 5.16146 40.25 5.1875C40.4323 5.21354 40.612 5.22656 40.7891 5.22656C40.8724 5.22656 40.9505 5.21615 41.0234 5.19531C41.1016 5.17448 41.1771 5.16406 41.25 5.16406C41.2604 5.16406 41.2812 5.16667 41.3125 5.17188C41.3438 5.17188 41.362 5.17188 41.3672 5.17188C41.3984 5.17188 41.4453 5.17448 41.5078 5.17969C41.5755 5.17969 41.6432 5.18229 41.7109 5.1875C41.7786 5.19271 41.8411 5.20052 41.8984 5.21094C41.9557 5.21615 41.9922 5.22135 42.0078 5.22656C42.0807 5.23698 42.1432 5.2474 42.1953 5.25781C42.2474 5.26823 42.2969 5.28125 42.3438 5.29688C42.3906 5.30729 42.4401 5.31771 42.4922 5.32812C42.5443 5.33333 42.6068 5.33594 42.6797 5.33594C42.7161 5.33594 42.7656 5.33333 42.8281 5.32812C42.8906 5.32292 42.9271 5.32031 42.9375 5.32031C42.9427 5.32031 42.9557 5.3151 42.9766 5.30469C42.9974 5.29427 43.0182 5.28385 43.0391 5.27344C43.0651 5.26302 43.0885 5.2526 43.1094 5.24219C43.1302 5.23177 43.1458 5.22656 43.1562 5.22656C43.2708 5.17969 43.3854 5.14583 43.5 5.125C43.6198 5.09896 43.7396 5.05729 43.8594 5C43.8646 4.99479 43.8828 4.98177 43.9141 4.96094C43.9453 4.9401 43.9766 4.91667 44.0078 4.89062C44.0443 4.86458 44.0781 4.84115 44.1094 4.82031C44.1406 4.79948 44.1589 4.78646 44.1641 4.78125H44.2188C44.2917 4.78125 44.3698 4.80208 44.4531 4.84375C44.5417 4.88542 44.6146 4.92448 44.6719 4.96094C44.6719 5.08073 44.6901 5.1875 44.7266 5.28125C44.7682 5.36979 44.8125 5.46094 44.8594 5.55469C44.9062 5.64323 44.9479 5.73958 44.9844 5.84375C45.026 5.94271 45.0469 6.0625 45.0469 6.20312V6.46875C45.026 6.51042 45.0026 6.53906 44.9766 6.55469C44.9557 6.57031 44.9245 6.57812 44.8828 6.57812C44.8099 6.57812 44.7318 6.5625 44.6484 6.53125C44.5703 6.49479 44.487 6.45573 44.3984 6.41406C44.3151 6.36719 44.2292 6.32552 44.1406 6.28906C44.0573 6.2474 43.9766 6.21875 43.8984 6.20312C43.888 6.19792 43.8568 6.19271 43.8047 6.1875C43.7526 6.18229 43.6953 6.17708 43.6328 6.17188C43.5703 6.16146 43.513 6.15365 43.4609 6.14844C43.4089 6.14323 43.375 6.13802 43.3594 6.13281C43.349 6.13281 43.3229 6.11719 43.2812 6.08594C43.2396 6.05469 43.2161 6.03906 43.2109 6.03906H43.0625C42.9375 6.03906 42.8385 6.0599 42.7656 6.10156C42.6927 6.13802 42.6354 6.1875 42.5938 6.25C42.5573 6.3125 42.5339 6.38542 42.5234 6.46875C42.513 6.54688 42.5078 6.63021 42.5078 6.71875V6.98438V7.16406C42.5078 7.1849 42.4974 7.22656 42.4766 7.28906C42.4609 7.34635 42.4531 7.38021 42.4531 7.39062V7.48438V7.60938C42.4531 7.61458 42.4557 7.63021 42.4609 7.65625C42.4661 7.68229 42.4714 7.71094 42.4766 7.74219C42.487 7.76823 42.4948 7.79427 42.5 7.82031C42.5052 7.84635 42.5078 7.86458 42.5078 7.875V8.57812C42.5078 8.59375 42.513 8.63281 42.5234 8.69531C42.5391 8.7526 42.5469 8.79167 42.5469 8.8125C42.5469 8.86458 42.5495 8.91406 42.5547 8.96094C42.5599 9.0026 42.5625 9.04167 42.5625 9.07812C42.5677 9.11458 42.5703 9.14583 42.5703 9.17188C42.5703 9.19792 42.5677 9.23438 42.5625 9.28125C42.5625 9.32292 42.5599 9.36458 42.5547 9.40625C42.5495 9.45833 42.5469 9.50781 42.5469 9.55469C42.5469 9.5599 42.5443 9.57552 42.5391 9.60156C42.5339 9.6224 42.5286 9.64583 42.5234 9.67188C42.5234 9.69271 42.5208 9.71354 42.5156 9.73438C42.5104 9.75521 42.5078 9.76823 42.5078 9.77344V9.85156V9.92969C42.5078 9.9401 42.513 9.96615 42.5234 10.0078C42.5339 10.0443 42.5443 10.0833 42.5547 10.125C42.5651 10.1667 42.5755 10.2057 42.5859 10.2422C42.5964 10.2786 42.6016 10.3021 42.6016 10.3125C42.6068 10.3333 42.612 10.3672 42.6172 10.4141C42.6224 10.4609 42.6276 10.5104 42.6328 10.5625C42.6432 10.6094 42.651 10.6562 42.6562 10.7031C42.6615 10.75 42.6641 10.7812 42.6641 10.7969C42.7109 10.8594 42.7656 10.9141 42.8281 10.9609C42.8958 11.0026 42.9635 11.0443 43.0312 11.0859C43.099 11.1224 43.1615 11.1615 43.2188 11.2031C43.276 11.2396 43.3229 11.2839 43.3594 11.3359C43.3698 11.3516 43.3828 11.3776 43.3984 11.4141C43.4193 11.4505 43.4401 11.4896 43.4609 11.5312C43.4818 11.5729 43.4974 11.612 43.5078 11.6484C43.5234 11.6849 43.5312 11.7109 43.5312 11.7266C43.5312 11.7734 43.5052 11.8177 43.4531 11.8594C43.401 11.901 43.3385 11.9375 43.2656 11.9688C43.1927 11.9948 43.1198 12.0156 43.0469 12.0312C42.974 12.0469 42.9141 12.0547 42.8672 12.0547C42.7891 12.0547 42.7135 12.0339 42.6406 11.9922C42.5729 11.9505 42.4922 11.9297 42.3984 11.9297ZM47.5938 14.9844V14.7578C47.5938 14.7526 47.6016 14.7318 47.6172 14.6953C47.6328 14.6589 47.6536 14.6172 47.6797 14.5703C47.7005 14.5234 47.724 14.4766 47.75 14.4297C47.7708 14.3828 47.7891 14.3438 47.8047 14.3125C47.8776 14.1927 47.9557 14.1172 48.0391 14.0859C48.1224 14.0547 48.2396 14.0391 48.3906 14.0391C48.5365 14.0391 48.6432 14.0599 48.7109 14.1016C48.7734 14.1432 48.8229 14.1953 48.8594 14.2578C48.8958 14.3203 48.9323 14.3854 48.9688 14.4531C49.0052 14.526 49.0677 14.5911 49.1562 14.6484C49.1667 14.6484 49.1953 14.6562 49.2422 14.6719C49.2891 14.6927 49.3203 14.7031 49.3359 14.7031C49.3464 14.7031 49.362 14.7109 49.3828 14.7266C49.4036 14.7474 49.4193 14.7578 49.4297 14.7578C49.5651 14.8516 49.724 14.9115 49.9062 14.9375C50.0885 14.9635 50.263 14.9766 50.4297 14.9766C50.4922 14.9766 50.5495 14.9531 50.6016 14.9062C50.6589 14.8646 50.7083 14.8125 50.75 14.75C50.7969 14.6875 50.8359 14.6198 50.8672 14.5469C50.8984 14.4792 50.9271 14.4219 50.9531 14.375C50.9688 14.3438 50.9896 14.2995 51.0156 14.2422C51.0417 14.1901 51.0651 14.138 51.0859 14.0859C51.112 14.0391 51.1328 13.9948 51.1484 13.9531C51.1641 13.9167 51.1719 13.8958 51.1719 13.8906C51.1719 13.8854 51.1719 13.8698 51.1719 13.8438C51.1771 13.8229 51.1823 13.7943 51.1875 13.7578C51.1927 13.7266 51.1979 13.6927 51.2031 13.6562C51.2135 13.625 51.2214 13.5964 51.2266 13.5703C51.2266 13.5599 51.2292 13.5312 51.2344 13.4844C51.2396 13.4427 51.2422 13.3958 51.2422 13.3438C51.2474 13.2969 51.2526 13.2526 51.2578 13.2109C51.263 13.1693 51.2656 13.1432 51.2656 13.1328C51.2708 13.1224 51.2786 13.1016 51.2891 13.0703C51.2995 13.0391 51.3073 13.0052 51.3125 12.9688C51.3177 12.9375 51.3229 12.9062 51.3281 12.875C51.3333 12.8438 51.3359 12.8229 51.3359 12.8125C51.3359 12.7969 51.3307 12.7656 51.3203 12.7188C51.3151 12.6771 51.3073 12.6302 51.2969 12.5781C51.2917 12.5312 51.2839 12.487 51.2734 12.4453C51.2682 12.4089 51.2656 12.3854 51.2656 12.375C51.2552 12.0781 51.2474 11.7786 51.2422 11.4766C51.2422 11.1745 51.237 10.875 51.2266 10.5781C51.2266 10.5729 51.224 10.5573 51.2188 10.5312C51.2135 10.5052 51.2057 10.4792 51.1953 10.4531C51.1901 10.4219 51.1849 10.3932 51.1797 10.3672C51.1745 10.3411 51.1719 10.3229 51.1719 10.3125V10.1484C51.1719 10.0547 51.1797 9.96094 51.1953 9.86719C51.2161 9.77344 51.2266 9.67708 51.2266 9.57812C51.2266 9.48958 51.2161 9.40365 51.1953 9.32031C51.1797 9.23177 51.1719 9.14844 51.1719 9.07031V9.01562C51.1771 8.99479 51.1875 8.94271 51.2031 8.85938C51.2188 8.77083 51.2344 8.67708 51.25 8.57812C51.2708 8.47917 51.2891 8.38802 51.3047 8.30469C51.3203 8.21615 51.3307 8.15885 51.3359 8.13281V7.78125V7.66406C51.3359 7.63802 51.3438 7.59896 51.3594 7.54688C51.3802 7.48958 51.3906 7.45573 51.3906 7.44531V7.35156C51.3906 7.27865 51.3828 7.22135 51.3672 7.17969C51.3568 7.13281 51.3229 7.07292 51.2656 7C51.276 6.96354 51.2812 6.90104 51.2812 6.8125C51.2812 6.71875 51.2812 6.61979 51.2812 6.51562C51.2812 6.41146 51.2812 6.3151 51.2812 6.22656C51.2812 6.13281 51.276 6.0651 51.2656 6.02344C51.2656 5.86198 51.25 5.70573 51.2188 5.55469C51.1875 5.39844 51.1719 5.24479 51.1719 5.09375C51.1719 4.82812 51.1797 4.5651 51.1953 4.30469C51.2161 4.04427 51.2266 3.78385 51.2266 3.52344V3.20312C51.2214 3.15625 51.2135 3.08854 51.2031 3C51.1927 2.91146 51.1797 2.82292 51.1641 2.73438C51.1536 2.64062 51.1432 2.55729 51.1328 2.48438C51.1276 2.40625 51.1224 2.35677 51.1172 2.33594C51.112 2.32031 51.1016 2.29948 51.0859 2.27344C51.0755 2.24219 51.0599 2.21094 51.0391 2.17969C51.0234 2.14323 51.0052 2.10938 50.9844 2.07812C50.9688 2.04688 50.9583 2.02604 50.9531 2.01562C50.9427 2.00521 50.9245 1.99219 50.8984 1.97656C50.8724 1.95573 50.8568 1.94531 50.8516 1.94531H49.8203C49.8099 1.94531 49.7708 1.93229 49.7031 1.90625C49.6354 1.88021 49.5833 1.86198 49.5469 1.85156C49.4219 1.79427 49.3438 1.72656 49.3125 1.64844C49.2812 1.57031 49.2656 1.46615 49.2656 1.33594C49.2656 1.29948 49.2656 1.26042 49.2656 1.21875C49.2656 1.17708 49.2708 1.14844 49.2812 1.13281C49.2812 1.11198 49.3073 1.07292 49.3594 1.01562C49.4167 0.958333 49.4583 0.924479 49.4844 0.914062H49.8203H50.1484C50.1589 0.919271 50.1875 0.927083 50.2344 0.9375C50.2812 0.947917 50.3307 0.960938 50.3828 0.976562C50.4401 0.992188 50.4922 1.00521 50.5391 1.01562C50.5859 1.02604 50.6172 1.03385 50.6328 1.03906H50.8516C51.1068 1.04948 51.3594 1.06771 51.6094 1.09375C51.8646 1.11979 52.125 1.13281 52.3906 1.13281C52.5052 1.13281 52.6146 1.10938 52.7188 1.0625C52.8281 1.01042 52.9427 0.984375 53.0625 0.984375H53.1172C53.1641 0.984375 53.2422 0.986979 53.3516 0.992188C53.4609 0.997396 53.5755 1.0026 53.6953 1.00781C53.8151 1.01302 53.9297 1.01823 54.0391 1.02344C54.1484 1.02865 54.224 1.03385 54.2656 1.03906C54.5938 1.11719 54.7578 1.32812 54.7578 1.67188C54.7578 1.71875 54.7552 1.76042 54.75 1.79688C54.7448 1.83333 54.7292 1.86979 54.7031 1.90625C54.6927 1.91146 54.6745 1.91927 54.6484 1.92969C54.6224 1.9401 54.599 1.94531 54.5781 1.94531C54.4688 1.98177 54.3516 2.00781 54.2266 2.02344C54.1016 2.03385 53.9792 2.03906 53.8594 2.03906C53.7656 2.03906 53.6745 2.03646 53.5859 2.03125C53.5026 2.02604 53.4193 2.02083 53.3359 2.01562C53.2057 2.10938 53.099 2.21354 53.0156 2.32812C52.9323 2.44271 52.8906 2.58594 52.8906 2.75781C52.8906 2.76823 52.8906 2.78385 52.8906 2.80469C52.8906 2.82031 52.8932 2.83854 52.8984 2.85938C52.9036 2.88021 52.9089 2.90365 52.9141 2.92969C52.9141 2.94531 52.9167 2.97917 52.9219 3.03125C52.9271 3.08333 52.9297 3.14062 52.9297 3.20312C52.9349 3.26042 52.9401 3.3151 52.9453 3.36719C52.9505 3.41927 52.9531 3.45312 52.9531 3.46875V4.57031C52.9531 4.92969 52.9505 5.28125 52.9453 5.625C52.9401 5.96875 52.9297 6.31771 52.9141 6.67188C52.9089 6.6875 52.901 6.72396 52.8906 6.78125C52.8854 6.83854 52.8802 6.90365 52.875 6.97656C52.8698 7.04427 52.8646 7.10677 52.8594 7.16406C52.8542 7.22135 52.8516 7.25781 52.8516 7.27344V7.35156C52.8516 7.40885 52.862 7.45833 52.8828 7.5C52.9036 7.53646 52.9141 7.57552 52.9141 7.61719V7.66406C52.9036 7.66927 52.8906 7.69271 52.875 7.73438C52.8646 7.77604 52.8568 7.80208 52.8516 7.8125C52.8568 8.04688 52.8594 8.27604 52.8594 8.5C52.8594 8.72396 52.8594 8.95312 52.8594 9.1875C52.8594 9.5 52.8594 9.8151 52.8594 10.1328C52.8594 10.4453 52.8568 10.7578 52.8516 11.0703C52.8516 11.0964 52.849 11.138 52.8438 11.1953C52.8385 11.2474 52.8333 11.3047 52.8281 11.3672C52.8229 11.4297 52.8151 11.4896 52.8047 11.5469C52.7995 11.6042 52.7969 11.6432 52.7969 11.6641V11.7422C52.7969 11.8464 52.8073 11.9479 52.8281 12.0469C52.849 12.1458 52.8594 12.2474 52.8594 12.3516C52.8594 12.362 52.8568 12.375 52.8516 12.3906C52.8516 12.4062 52.8516 12.4193 52.8516 12.4297V12.4766C52.8516 12.4974 52.8333 12.5365 52.7969 12.5938C52.7604 12.651 52.7422 12.6823 52.7422 12.6875C52.737 12.7031 52.7292 12.7422 52.7188 12.8047C52.7083 12.8724 52.6979 12.9427 52.6875 13.0156C52.6771 13.0938 52.6667 13.1641 52.6562 13.2266C52.651 13.2943 52.6484 13.3359 52.6484 13.3516C52.638 13.3828 52.625 13.4245 52.6094 13.4766C52.599 13.5286 52.5859 13.5807 52.5703 13.6328C52.5599 13.6849 52.5495 13.7292 52.5391 13.7656C52.5339 13.8073 52.5286 13.8307 52.5234 13.8359C52.5182 13.8516 52.4974 13.8984 52.4609 13.9766C52.4297 14.0599 52.3906 14.1484 52.3438 14.2422C52.2969 14.3411 52.2474 14.4375 52.1953 14.5312C52.1484 14.6302 52.1094 14.7057 52.0781 14.7578C52.0521 14.8203 52.0208 14.8698 51.9844 14.9062C51.9531 14.9479 51.9167 14.9818 51.875 15.0078C51.8333 15.0391 51.7891 15.0677 51.7422 15.0938C51.7005 15.1198 51.6536 15.151 51.6016 15.1875C51.5964 15.2031 51.5703 15.2344 51.5234 15.2812C51.4766 15.3281 51.4505 15.3516 51.4453 15.3516C51.4349 15.362 51.3984 15.3802 51.3359 15.4062C51.2734 15.4323 51.237 15.4505 51.2266 15.4609C51.1641 15.4922 51.1146 15.5182 51.0781 15.5391C51.0417 15.5651 51.0078 15.5885 50.9766 15.6094C50.9453 15.6302 50.9115 15.6484 50.875 15.6641C50.8385 15.6849 50.7891 15.7057 50.7266 15.7266C50.7161 15.7422 50.6901 15.7552 50.6484 15.7656C50.612 15.776 50.5885 15.7812 50.5781 15.7812C50.2448 15.8542 49.9219 15.9089 49.6094 15.9453C49.3021 15.9818 48.9844 16 48.6562 16C48.3177 16 48.0573 15.9193 47.875 15.7578C47.6875 15.6016 47.5938 15.3438 47.5938 14.9844ZM55.4688 11.7812C55.4688 11.7344 55.4948 11.6771 55.5469 11.6094C55.599 11.5365 55.6458 11.487 55.6875 11.4609C55.7083 11.4557 55.7448 11.4479 55.7969 11.4375C55.8542 11.4271 55.9141 11.4141 55.9766 11.3984C56.0391 11.3828 56.099 11.3698 56.1562 11.3594C56.2135 11.349 56.2552 11.3411 56.2812 11.3359C56.3854 11.3255 56.4609 11.3047 56.5078 11.2734C56.5599 11.2422 56.5964 11.1745 56.6172 11.0703C56.6328 10.9505 56.6432 10.8203 56.6484 10.6797C56.6589 10.5339 56.6641 10.3984 56.6641 10.2734V10.1641C56.6641 10.1484 56.6562 10.1172 56.6406 10.0703C56.625 10.0234 56.6172 9.99479 56.6172 9.98438C56.612 9.96354 56.6068 9.91667 56.6016 9.84375C56.5964 9.77083 56.5911 9.69271 56.5859 9.60938C56.5807 9.52083 56.5755 9.4401 56.5703 9.36719C56.5651 9.28906 56.5599 9.24219 56.5547 9.22656C56.5547 9.22135 56.5443 9.19531 56.5234 9.14844C56.5078 9.09635 56.5 9.0651 56.5 9.05469V9.03906V9.01562C56.5781 8.42188 56.6172 7.83594 56.6172 7.25781C56.6172 7.10677 56.6068 6.95833 56.5859 6.8125C56.5651 6.66667 56.5547 6.51823 56.5547 6.36719V6.24219C56.5391 6.23177 56.5104 6.21354 56.4688 6.1875C56.4271 6.16146 56.401 6.14323 56.3906 6.13281C56.3802 6.1224 56.362 6.10417 56.3359 6.07812C56.3099 6.04688 56.2917 6.02604 56.2812 6.01562C56.2031 5.97917 56.112 5.95573 56.0078 5.94531C55.9089 5.92969 55.8125 5.91146 55.7188 5.89062C55.6302 5.86458 55.5547 5.82552 55.4922 5.77344C55.4349 5.72135 55.4062 5.63802 55.4062 5.52344V5.42969C55.4062 5.40885 55.4089 5.39062 55.4141 5.375C55.4245 5.35417 55.4557 5.33073 55.5078 5.30469C55.5651 5.27344 55.6068 5.25781 55.6328 5.25781H57.2578C57.2786 5.27865 57.3151 5.30208 57.3672 5.32812C57.4245 5.35417 57.4583 5.36979 57.4688 5.375H57.5234C57.7005 5.375 57.8724 5.34635 58.0391 5.28906C58.2057 5.23177 58.3776 5.20312 58.5547 5.20312H58.7812C58.901 5.21354 59.0312 5.23698 59.1719 5.27344C59.3125 5.30469 59.4453 5.32031 59.5703 5.32031C59.6276 5.32031 59.6849 5.3099 59.7422 5.28906C59.7995 5.26823 59.862 5.25781 59.9297 5.25781H59.9688C60.0156 5.27344 60.0781 5.29167 60.1562 5.3125C60.2396 5.32812 60.3229 5.34896 60.4062 5.375C60.4896 5.40104 60.5651 5.43229 60.6328 5.46875C60.7057 5.50521 60.7552 5.54688 60.7812 5.59375C60.8281 5.67708 60.8776 5.76562 60.9297 5.85938C60.9818 5.95312 61.0286 6.04948 61.0703 6.14844C61.1172 6.2474 61.1536 6.34896 61.1797 6.45312C61.2109 6.55729 61.2266 6.65885 61.2266 6.75781C61.2266 6.8151 61.2109 6.8724 61.1797 6.92969C61.1536 6.98698 61.112 7.02865 61.0547 7.05469C61.0391 7.0651 61.0026 7.07031 60.9453 7.07031C60.8932 7.07031 60.8568 7.07031 60.8359 7.07031C60.7422 7.07031 60.6719 7.0651 60.625 7.05469C60.5781 7.04427 60.5391 7.02604 60.5078 7C60.4766 6.96875 60.4453 6.93229 60.4141 6.89062C60.388 6.84375 60.349 6.78906 60.2969 6.72656C60.2917 6.71615 60.2734 6.69531 60.2422 6.66406C60.2109 6.63281 60.1771 6.60156 60.1406 6.57031C60.1042 6.53385 60.0677 6.5 60.0312 6.46875C60 6.4375 59.9792 6.41667 59.9688 6.40625C59.9635 6.39583 59.9557 6.36979 59.9453 6.32812C59.9349 6.28125 59.9297 6.2526 59.9297 6.24219C59.8984 6.16406 59.8516 6.10938 59.7891 6.07812C59.7318 6.04688 59.6667 6.02344 59.5938 6.00781C59.5208 5.99219 59.4453 5.97656 59.3672 5.96094C59.2943 5.94531 59.2266 5.91406 59.1641 5.86719H58.3359C58.2682 5.86719 58.2083 5.89062 58.1562 5.9375C58.1094 5.98438 58.0625 6.03125 58.0156 6.07812C57.9062 6.21354 57.8411 6.36979 57.8203 6.54688C57.8047 6.71875 57.7969 6.88802 57.7969 7.05469C57.7969 7.23698 57.7995 7.40625 57.8047 7.5625C57.8099 7.71875 57.8307 7.89062 57.8672 8.07812C57.8724 8.15104 57.8932 8.19792 57.9297 8.21875C57.9714 8.23438 58.0182 8.24219 58.0703 8.24219H58.1875C58.1979 8.24219 58.2214 8.23698 58.2578 8.22656C58.2995 8.21094 58.3255 8.20312 58.3359 8.20312C58.3516 8.19792 58.3854 8.19271 58.4375 8.1875C58.4948 8.17708 58.5521 8.16927 58.6094 8.16406C58.6719 8.15885 58.7292 8.15625 58.7812 8.15625C58.8385 8.15104 58.875 8.14844 58.8906 8.14844C58.9635 8.13281 59.0208 8.10938 59.0625 8.07812C59.1094 8.04688 59.1458 8.01042 59.1719 7.96875C59.1979 7.92188 59.2214 7.8724 59.2422 7.82031C59.263 7.76823 59.2891 7.71615 59.3203 7.66406C59.3464 7.61198 59.375 7.55469 59.4062 7.49219C59.4375 7.42448 59.4714 7.36198 59.5078 7.30469C59.5495 7.2474 59.5964 7.19792 59.6484 7.15625C59.7005 7.11458 59.763 7.09375 59.8359 7.09375C59.9036 7.09375 59.9505 7.11719 59.9766 7.16406C60.0026 7.20573 60.0182 7.26302 60.0234 7.33594C60.0495 7.51823 60.0651 7.67708 60.0703 7.8125C60.0755 7.94792 60.0781 8.10417 60.0781 8.28125V8.57031C60.0781 8.60156 60.0755 8.65625 60.0703 8.73438C60.0651 8.80729 60.0599 8.88281 60.0547 8.96094C60.0495 9.03906 60.0443 9.11458 60.0391 9.1875C60.0339 9.25521 60.0286 9.29948 60.0234 9.32031C60.0234 9.34635 60.013 9.38802 59.9922 9.44531C59.9766 9.5026 59.9688 9.53906 59.9688 9.55469V9.625V9.8125C59.9688 9.85417 59.9661 9.89583 59.9609 9.9375C59.9609 9.97917 59.9505 10.013 59.9297 10.0391C59.9089 10.0547 59.8698 10.0833 59.8125 10.125C59.7604 10.1667 59.724 10.1927 59.7031 10.2031H59.5703C59.5443 10.2031 59.5208 10.2057 59.5 10.2109C59.4844 10.2161 59.4714 10.2188 59.4609 10.2188C59.4297 10.2188 59.4062 10.2005 59.3906 10.1641C59.3698 10.1432 59.3464 10.1068 59.3203 10.0547C59.2943 9.9974 59.2786 9.95573 59.2734 9.92969V9.28125C59.2682 9.21354 59.2474 9.15885 59.2109 9.11719C59.1745 9.07031 59.1276 9.03646 59.0703 9.01562C59.013 8.99479 58.9479 8.98177 58.875 8.97656C58.8073 8.96615 58.7396 8.96094 58.6719 8.96094H58.375H58.2266C58.1745 8.96094 58.1224 8.96354 58.0703 8.96875C58.0234 8.97396 57.9792 8.98698 57.9375 9.00781C57.8958 9.02344 57.862 9.05208 57.8359 9.09375C57.8099 9.13021 57.7969 9.17969 57.7969 9.24219V9.32031C57.8021 9.33594 57.8073 9.3776 57.8125 9.44531C57.8177 9.51302 57.8229 9.58333 57.8281 9.65625C57.8385 9.72917 57.8464 9.79948 57.8516 9.86719C57.8568 9.92969 57.862 9.96875 57.8672 9.98438V10.5V10.7031C57.8672 10.7083 57.8698 10.724 57.875 10.75C57.8854 10.7708 57.8958 10.7995 57.9062 10.8359C57.9167 10.8672 57.9271 10.901 57.9375 10.9375C57.9479 10.9688 57.9583 10.9948 57.9688 11.0156C57.9948 11.0781 58.026 11.125 58.0625 11.1562C58.1042 11.1823 58.1484 11.2005 58.1953 11.2109C58.2422 11.2214 58.2917 11.2266 58.3438 11.2266C58.401 11.2266 58.4583 11.2318 58.5156 11.2422C58.6042 11.2526 58.6927 11.2708 58.7812 11.2969C58.8698 11.3229 58.9661 11.3359 59.0703 11.3359H59.3125C59.474 11.3359 59.638 11.3307 59.8047 11.3203C59.9766 11.3099 60.1406 11.2839 60.2969 11.2422C60.3073 11.2422 60.3281 11.2344 60.3594 11.2188C60.3906 11.1979 60.4115 11.1875 60.4219 11.1875C60.4323 11.1719 60.4557 11.151 60.4922 11.125C60.5286 11.0938 60.5651 11.0625 60.6016 11.0312C60.6432 10.9948 60.6797 10.9609 60.7109 10.9297C60.7474 10.8932 60.7708 10.8672 60.7812 10.8516C60.7969 10.8411 60.8255 10.8151 60.8672 10.7734C60.9089 10.7318 60.9531 10.6875 61 10.6406C61.0521 10.5885 61.099 10.5443 61.1406 10.5078C61.1823 10.4661 61.2109 10.4401 61.2266 10.4297C61.2526 10.4036 61.2786 10.388 61.3047 10.3828C61.3359 10.3724 61.3698 10.3672 61.4062 10.3672H61.5156C61.5729 10.3672 61.6354 10.3698 61.7031 10.375C61.7708 10.3802 61.8255 10.3984 61.8672 10.4297C61.9714 10.5026 62.0625 10.5807 62.1406 10.6641C62.2188 10.7422 62.2578 10.8464 62.2578 10.9766V11.0703C62.2526 11.0911 62.2422 11.125 62.2266 11.1719C62.2161 11.2135 62.2005 11.2578 62.1797 11.3047C62.1641 11.3516 62.1458 11.3958 62.125 11.4375C62.1094 11.474 62.099 11.5 62.0938 11.5156C62.0677 11.5573 62.0182 11.6068 61.9453 11.6641C61.8724 11.7161 61.8151 11.7552 61.7734 11.7812C61.7422 11.7969 61.7005 11.8177 61.6484 11.8438C61.6016 11.8698 61.5547 11.8958 61.5078 11.9219C61.4609 11.9427 61.4193 11.9609 61.3828 11.9766C61.3464 11.9922 61.3255 12 61.3203 12H56.7656C56.6927 12.026 56.6172 12.0417 56.5391 12.0469C56.4609 12.0521 56.3802 12.0547 56.2969 12.0547H56.1094H55.7422C55.7214 12.0547 55.6875 12.0469 55.6406 12.0312C55.599 12.0208 55.5781 12.0104 55.5781 12C55.5677 11.9792 55.5469 11.9427 55.5156 11.8906C55.4844 11.8333 55.4688 11.7969 55.4688 11.7812ZM65.6875 11.875C65.6719 11.8542 65.6458 11.8099 65.6094 11.7422C65.5729 11.6693 65.5339 11.5938 65.4922 11.5156C65.4505 11.4323 65.4115 11.3542 65.375 11.2812C65.3438 11.2083 65.3229 11.1562 65.3125 11.125C65.3021 11.1198 65.2917 11.0964 65.2812 11.0547C65.2708 11.0078 65.2578 10.9609 65.2422 10.9141C65.2318 10.862 65.2214 10.8151 65.2109 10.7734C65.2057 10.7266 65.2031 10.6979 65.2031 10.6875C65.1562 10.5312 65.0964 10.3776 65.0234 10.2266C64.9505 10.0755 64.8802 9.92448 64.8125 9.77344C64.8125 9.76302 64.7969 9.72656 64.7656 9.66406C64.7344 9.60156 64.7188 9.5651 64.7188 9.55469C64.7135 9.54427 64.7083 9.52083 64.7031 9.48438C64.6979 9.44792 64.6927 9.40885 64.6875 9.36719C64.6823 9.32552 64.6771 9.28646 64.6719 9.25C64.6667 9.20833 64.6641 9.18229 64.6641 9.17188C64.6484 9.13021 64.625 9.08333 64.5938 9.03125C64.5677 8.97396 64.5365 8.91667 64.5 8.85938C64.4688 8.80208 64.4375 8.74479 64.4062 8.6875C64.375 8.63021 64.349 8.57552 64.3281 8.52344C64.2656 8.36198 64.2109 8.20052 64.1641 8.03906C64.1224 7.8724 64.0677 7.70573 64 7.53906C63.9531 7.42969 63.8958 7.32292 63.8281 7.21875C63.7604 7.11458 63.6927 7.01042 63.625 6.90625C63.625 6.89062 63.6172 6.86979 63.6016 6.84375C63.5911 6.8125 63.5807 6.79167 63.5703 6.78125C63.5703 6.77604 63.5651 6.76042 63.5547 6.73438C63.5443 6.70833 63.5339 6.67969 63.5234 6.64844C63.513 6.61719 63.5 6.58854 63.4844 6.5625C63.474 6.53646 63.4661 6.52083 63.4609 6.51562L63.4219 6.46094C63.2917 6.3776 63.1849 6.28125 63.1016 6.17188C63.0234 6.05729 62.9271 5.95573 62.8125 5.86719C62.7292 5.8099 62.6536 5.7526 62.5859 5.69531C62.5182 5.63802 62.4844 5.55469 62.4844 5.44531C62.4844 5.3776 62.5 5.32552 62.5312 5.28906C62.5677 5.2526 62.6094 5.22656 62.6562 5.21094C62.7083 5.1901 62.763 5.17708 62.8203 5.17188C62.8776 5.16667 62.9297 5.16406 62.9766 5.16406C62.9922 5.15885 63.0234 5.15365 63.0703 5.14844C63.1224 5.14323 63.1771 5.13802 63.2344 5.13281C63.2917 5.1276 63.3464 5.1224 63.3984 5.11719C63.4505 5.11198 63.4896 5.10938 63.5156 5.10938C63.526 5.10938 63.5365 5.10677 63.5469 5.10156C63.5573 5.10156 63.5651 5.10156 63.5703 5.10156C63.5755 5.09635 63.5807 5.09375 63.5859 5.09375L63.625 5.10938C63.6354 5.10938 63.6589 5.11458 63.6953 5.125C63.7318 5.13542 63.7708 5.14844 63.8125 5.16406C63.8594 5.17969 63.901 5.19271 63.9375 5.20312C63.974 5.21354 63.9948 5.21875 64 5.21875C64.0312 5.21875 64.0885 5.22396 64.1719 5.23438C64.2552 5.24479 64.3438 5.25781 64.4375 5.27344C64.5312 5.28385 64.6172 5.29427 64.6953 5.30469C64.7786 5.3099 64.8359 5.3125 64.8672 5.3125C65.0547 5.36979 65.1484 5.49479 65.1484 5.6875C65.1484 5.80729 65.1302 5.91667 65.0938 6.01562C65.0573 6.11458 65.0391 6.22135 65.0391 6.33594C65.0391 6.48698 65.0521 6.61979 65.0781 6.73438C65.1042 6.84896 65.1354 6.96094 65.1719 7.07031C65.2083 7.17448 65.2474 7.28125 65.2891 7.39062C65.3359 7.5 65.375 7.6224 65.4062 7.75781C65.4115 7.76823 65.4167 7.79167 65.4219 7.82812C65.4271 7.86458 65.4323 7.90365 65.4375 7.94531C65.4479 7.98698 65.4557 8.02604 65.4609 8.0625C65.4661 8.09896 65.4714 8.1224 65.4766 8.13281C65.4766 8.14844 65.4844 8.17969 65.5 8.22656C65.5208 8.27344 65.5417 8.32812 65.5625 8.39062C65.5885 8.44792 65.612 8.50521 65.6328 8.5625C65.6589 8.61458 65.6771 8.65625 65.6875 8.6875C65.6927 8.69792 65.7057 8.72396 65.7266 8.76562C65.7526 8.80729 65.776 8.85417 65.7969 8.90625C65.8229 8.95312 65.8438 8.9974 65.8594 9.03906C65.8802 9.08073 65.8906 9.10417 65.8906 9.10938C65.9062 9.13021 65.9193 9.17188 65.9297 9.23438C65.9401 9.29167 65.9505 9.32552 65.9609 9.33594C66.0182 9.47135 66.0781 9.61198 66.1406 9.75781C66.2031 9.89844 66.2682 10.0286 66.3359 10.1484C66.3464 10.1484 66.3698 10.151 66.4062 10.1562C66.4427 10.1615 66.4661 10.1641 66.4766 10.1641C66.5703 10.1641 66.651 10.151 66.7188 10.125C66.7917 10.0938 66.8464 10.026 66.8828 9.92188C66.8984 9.90104 66.9167 9.86198 66.9375 9.80469C66.9583 9.74219 66.9792 9.67708 67 9.60938C67.0208 9.53646 67.0391 9.47135 67.0547 9.41406C67.0755 9.35156 67.0885 9.30729 67.0938 9.28125C67.1927 9.21875 67.2708 9.13542 67.3281 9.03125C67.3854 8.92708 67.4297 8.8151 67.4609 8.69531C67.4922 8.57552 67.513 8.45573 67.5234 8.33594C67.5339 8.21615 67.5391 8.10417 67.5391 8V7.98438C67.5339 7.95312 67.526 7.91146 67.5156 7.85938C67.5104 7.80208 67.5052 7.7474 67.5 7.69531C67.4948 7.64323 67.4896 7.59896 67.4844 7.5625C67.4844 7.52083 67.4844 7.49479 67.4844 7.48438C67.4844 7.47917 67.474 7.45833 67.4531 7.42188C67.4375 7.38542 67.4193 7.34635 67.3984 7.30469C67.3828 7.26302 67.3646 7.22396 67.3438 7.1875C67.3281 7.14583 67.3177 7.11979 67.3125 7.10938C67.2969 7.04688 67.2839 6.97135 67.2734 6.88281C67.2682 6.79427 67.2604 6.70573 67.25 6.61719C67.2396 6.52344 67.224 6.4349 67.2031 6.35156C67.1823 6.26823 67.1458 6.19531 67.0938 6.13281C67.0885 6.1224 67.0573 6.10417 67 6.07812C66.9479 6.05208 66.9089 6.03385 66.8828 6.02344C66.7891 5.99219 66.7005 5.97135 66.6172 5.96094C66.5339 5.95052 66.4635 5.93229 66.4062 5.90625C66.349 5.875 66.3021 5.83333 66.2656 5.78125C66.2344 5.72396 66.2188 5.63802 66.2188 5.52344V5.46875C66.2188 5.44271 66.2214 5.41667 66.2266 5.39062C66.2318 5.35938 66.2526 5.33333 66.2891 5.3125C66.3047 5.30729 66.3307 5.29688 66.3672 5.28125C66.4036 5.26042 66.4427 5.24219 66.4844 5.22656C66.526 5.21094 66.5625 5.19792 66.5938 5.1875C66.6302 5.17188 66.6536 5.16406 66.6641 5.16406H66.7422C66.8255 5.16406 66.9036 5.17969 66.9766 5.21094C67.0495 5.24219 67.1302 5.25781 67.2188 5.25781H68.4453C68.4557 5.25781 68.474 5.26562 68.5 5.28125C68.5312 5.29167 68.5625 5.30729 68.5938 5.32812C68.6302 5.34375 68.6667 5.36198 68.7031 5.38281C68.7396 5.39844 68.7682 5.41406 68.7891 5.42969C68.7943 5.4401 68.8229 5.47135 68.875 5.52344C68.9271 5.57031 68.9479 5.61198 68.9375 5.64844C68.9271 5.69531 68.8984 5.72917 68.8516 5.75C68.8047 5.76562 68.7552 5.78646 68.7031 5.8125C68.6562 5.83854 68.612 5.88021 68.5703 5.9375C68.5339 5.98958 68.5156 6.07292 68.5156 6.1875C68.5156 6.32292 68.526 6.47917 68.5469 6.65625C68.5677 6.82812 68.6068 6.97917 68.6641 7.10938C68.6745 7.125 68.6927 7.15885 68.7188 7.21094C68.75 7.26302 68.7812 7.32031 68.8125 7.38281C68.8438 7.44531 68.8698 7.50521 68.8906 7.5625C68.9167 7.61458 68.9323 7.64844 68.9375 7.66406C68.9427 7.66927 68.9453 7.70052 68.9453 7.75781C68.9453 7.8151 68.9427 7.8724 68.9375 7.92969C68.9375 7.98698 68.9375 8.01823 68.9375 8.02344C68.9479 8.08594 68.974 8.15365 69.0156 8.22656C69.0573 8.29427 69.0885 8.35938 69.1094 8.42188C69.1354 8.49479 69.1536 8.57031 69.1641 8.64844C69.1745 8.72656 69.1797 8.80729 69.1797 8.89062C69.1797 8.9375 69.1771 8.98438 69.1719 9.03125C69.1667 9.07812 69.1641 9.125 69.1641 9.17188C69.2214 9.24479 69.2682 9.32292 69.3047 9.40625C69.3464 9.48438 69.388 9.5625 69.4297 9.64062C69.4714 9.71354 69.5182 9.78646 69.5703 9.85938C69.6224 9.92708 69.6901 9.98698 69.7734 10.0391H69.7891C69.8359 10.0391 69.8828 10.0208 69.9297 9.98438C69.9766 9.94792 70.013 9.91146 70.0391 9.875C70.0651 9.84375 70.0807 9.8125 70.0859 9.78125C70.0964 9.74479 70.1016 9.71094 70.1016 9.67969C70.1068 9.64323 70.1094 9.60677 70.1094 9.57031C70.1146 9.53385 70.125 9.49219 70.1406 9.44531C70.1406 9.4349 70.1562 9.40885 70.1875 9.36719C70.224 9.32031 70.2422 9.29167 70.2422 9.28125C70.3151 9.11979 70.3724 8.95833 70.4141 8.79688C70.4557 8.63021 70.513 8.46354 70.5859 8.29688C70.5859 8.28646 70.6016 8.26042 70.6328 8.21875C70.6641 8.17188 70.6797 8.14323 70.6797 8.13281C70.737 8.03906 70.7786 7.92969 70.8047 7.80469C70.8359 7.67969 70.8516 7.5651 70.8516 7.46094V7.375C70.8516 7.36458 70.8411 7.33854 70.8203 7.29688C70.8047 7.25521 70.7969 7.22917 70.7969 7.21875C70.7917 7.19271 70.7891 7.14323 70.7891 7.07031C70.7891 6.9974 70.7891 6.91927 70.7891 6.83594C70.7891 6.7526 70.7891 6.67708 70.7891 6.60938C70.7891 6.54167 70.7917 6.49219 70.7969 6.46094C70.7604 6.3776 70.7031 6.29948 70.625 6.22656C70.5469 6.15365 70.4661 6.08073 70.3828 6.00781C70.3047 5.9349 70.2344 5.85938 70.1719 5.78125C70.1146 5.70312 70.0859 5.61719 70.0859 5.52344V5.48438C70.1432 5.36979 70.2214 5.30469 70.3203 5.28906C70.4245 5.26823 70.5339 5.25781 70.6484 5.25781C70.8047 5.25781 70.9583 5.26823 71.1094 5.28906C71.2656 5.3099 71.4193 5.32031 71.5703 5.32031C71.6068 5.32031 71.6562 5.32031 71.7188 5.32031C71.7812 5.3151 71.8177 5.3125 71.8281 5.3125C71.8333 5.3125 71.849 5.30729 71.875 5.29688C71.901 5.28646 71.9297 5.27604 71.9609 5.26562C71.9922 5.25521 72.0208 5.24479 72.0469 5.23438C72.0729 5.22396 72.0885 5.21875 72.0938 5.21875H72.1641C72.2109 5.21875 72.2604 5.22917 72.3125 5.25C72.3698 5.26562 72.4219 5.28906 72.4688 5.32031C72.5156 5.35156 72.5547 5.39062 72.5859 5.4375C72.6224 5.47917 72.6406 5.52344 72.6406 5.57031V5.57812C72.6042 5.69792 72.5651 5.82031 72.5234 5.94531C72.487 6.07031 72.4167 6.16927 72.3125 6.24219C72.3073 6.2474 72.2917 6.25781 72.2656 6.27344C72.2396 6.28385 72.2109 6.29948 72.1797 6.32031C72.1484 6.33594 72.1172 6.35417 72.0859 6.375C72.0599 6.39062 72.0417 6.40104 72.0312 6.40625C72.026 6.41146 72.013 6.42708 71.9922 6.45312C71.9714 6.47917 71.9453 6.51042 71.9141 6.54688C71.888 6.57812 71.8594 6.61198 71.8281 6.64844C71.7969 6.67969 71.7734 6.70573 71.7578 6.72656C71.7161 6.78906 71.6927 6.85417 71.6875 6.92188C71.6875 6.98438 71.6797 7.04688 71.6641 7.10938C71.6276 7.21354 71.5885 7.33594 71.5469 7.47656C71.5052 7.61719 71.4688 7.72917 71.4375 7.8125C71.4375 7.83333 71.4219 7.8724 71.3906 7.92969C71.3594 7.98698 71.3438 8.01823 71.3438 8.02344C71.3333 8.03906 71.3177 8.07812 71.2969 8.14062C71.2812 8.19792 71.2656 8.26302 71.25 8.33594C71.2344 8.40365 71.2188 8.47135 71.2031 8.53906C71.1875 8.60677 71.1745 8.65625 71.1641 8.6875V8.79688C71.0964 9.02083 71.0156 9.21615 70.9219 9.38281C70.8333 9.54427 70.7214 9.70833 70.5859 9.875C70.5703 9.88542 70.5469 9.90625 70.5156 9.9375C70.4896 9.96354 70.4714 9.97917 70.4609 9.98438C70.4557 9.99479 70.4479 10.0156 70.4375 10.0469C70.4323 10.0781 70.4245 10.112 70.4141 10.1484C70.4036 10.1849 70.3906 10.2214 70.375 10.2578C70.3646 10.2891 70.3568 10.3073 70.3516 10.3125C70.3464 10.3177 70.3385 10.3359 70.3281 10.3672C70.3229 10.3828 70.3177 10.401 70.3125 10.4219C70.3073 10.4219 70.2943 10.4297 70.2734 10.4453C70.2578 10.4609 70.2396 10.4792 70.2188 10.5C70.1979 10.5208 70.1797 10.5391 70.1641 10.5547C70.1484 10.5703 70.1406 10.5781 70.1406 10.5781C70.1406 10.5885 70.1302 10.6224 70.1094 10.6797C70.0938 10.737 70.0859 10.776 70.0859 10.7969C70.0651 10.901 70.0365 11.0182 70 11.1484C69.9635 11.2786 69.9141 11.4036 69.8516 11.5234C69.7891 11.6432 69.7135 11.7448 69.625 11.8281C69.5365 11.9062 69.4271 11.9453 69.2969 11.9453C69.1667 11.9453 69.0625 11.9245 68.9844 11.8828C68.9115 11.8359 68.8542 11.7786 68.8125 11.7109C68.7708 11.638 68.737 11.5547 68.7109 11.4609C68.6849 11.3672 68.6562 11.2708 68.625 11.1719C68.625 11.1719 68.6198 11.1615 68.6094 11.1406C68.599 11.1198 68.5859 11.099 68.5703 11.0781C68.5547 11.0521 68.5417 11.0286 68.5312 11.0078C68.5208 10.987 68.5156 10.9766 68.5156 10.9766C68.474 10.8776 68.4479 10.7656 68.4375 10.6406C68.4323 10.5104 68.4167 10.401 68.3906 10.3125C68.3698 10.1146 68.3307 9.94271 68.2734 9.79688C68.2161 9.64583 68.1354 9.49219 68.0312 9.33594H67.8906C67.8177 9.33594 67.763 9.34896 67.7266 9.375C67.6901 9.40104 67.6589 9.4349 67.6328 9.47656C67.612 9.51302 67.5911 9.5599 67.5703 9.61719C67.5495 9.66927 67.5208 9.72135 67.4844 9.77344C67.474 9.78385 67.4557 9.80208 67.4297 9.82812C67.4036 9.85417 67.375 9.88281 67.3438 9.91406C67.3125 9.9401 67.2839 9.96615 67.2578 9.99219C67.237 10.0182 67.224 10.0339 67.2188 10.0391C67.2083 10.0391 67.1953 10.0547 67.1797 10.0859C67.1693 10.1172 67.1589 10.138 67.1484 10.1484C67.138 10.1745 67.125 10.2109 67.1094 10.2578C67.0938 10.3047 67.0781 10.3542 67.0625 10.4062C67.0469 10.4583 67.0339 10.5052 67.0234 10.5469C67.013 10.5885 67.0052 10.6172 67 10.6328C66.9948 10.6484 66.9818 10.6901 66.9609 10.7578C66.9453 10.8203 66.9271 10.8906 66.9062 10.9688C66.8854 11.0417 66.8672 11.112 66.8516 11.1797C66.8359 11.2422 66.8281 11.2812 66.8281 11.2969C66.8281 11.3021 66.8203 11.3281 66.8047 11.375C66.7891 11.4167 66.7682 11.4661 66.7422 11.5234C66.7214 11.5807 66.6979 11.6406 66.6719 11.7031C66.6458 11.7604 66.625 11.8047 66.6094 11.8359C66.5677 11.9245 66.5182 11.9922 66.4609 12.0391C66.4089 12.0859 66.3281 12.1094 66.2188 12.1094C66.1146 12.1094 66.0156 12.0938 65.9219 12.0625C65.8281 12.0365 65.75 11.974 65.6875 11.875ZM73.4688 11.7812C73.4688 11.7344 73.4948 11.6771 73.5469 11.6094C73.599 11.5365 73.6458 11.487 73.6875 11.4609C73.7083 11.4557 73.7448 11.4479 73.7969 11.4375C73.8542 11.4271 73.9141 11.4141 73.9766 11.3984C74.0391 11.3828 74.099 11.3698 74.1562 11.3594C74.2135 11.349 74.2552 11.3411 74.2812 11.3359C74.3854 11.3255 74.4609 11.3047 74.5078 11.2734C74.5599 11.2422 74.5964 11.1745 74.6172 11.0703C74.6328 10.9505 74.6432 10.8203 74.6484 10.6797C74.6589 10.5339 74.6641 10.3984 74.6641 10.2734V10.1641C74.6641 10.1484 74.6562 10.1172 74.6406 10.0703C74.625 10.0234 74.6172 9.99479 74.6172 9.98438C74.612 9.96354 74.6068 9.91667 74.6016 9.84375C74.5964 9.77083 74.5911 9.69271 74.5859 9.60938C74.5807 9.52083 74.5755 9.4401 74.5703 9.36719C74.5651 9.28906 74.5599 9.24219 74.5547 9.22656C74.5547 9.22135 74.5443 9.19531 74.5234 9.14844C74.5078 9.09635 74.5 9.0651 74.5 9.05469V9.03906V9.01562C74.5781 8.42188 74.6172 7.83594 74.6172 7.25781C74.6172 7.10677 74.6068 6.95833 74.5859 6.8125C74.5651 6.66667 74.5547 6.51823 74.5547 6.36719V6.24219C74.5391 6.23177 74.5104 6.21354 74.4688 6.1875C74.4271 6.16146 74.401 6.14323 74.3906 6.13281C74.3802 6.1224 74.362 6.10417 74.3359 6.07812C74.3099 6.04688 74.2917 6.02604 74.2812 6.01562C74.2031 5.97917 74.112 5.95573 74.0078 5.94531C73.9089 5.92969 73.8125 5.91146 73.7188 5.89062C73.6302 5.86458 73.5547 5.82552 73.4922 5.77344C73.4349 5.72135 73.4062 5.63802 73.4062 5.52344V5.42969C73.4062 5.40885 73.4089 5.39062 73.4141 5.375C73.4245 5.35417 73.4557 5.33073 73.5078 5.30469C73.5651 5.27344 73.6068 5.25781 73.6328 5.25781H75.2578C75.2786 5.27865 75.3151 5.30208 75.3672 5.32812C75.4245 5.35417 75.4583 5.36979 75.4688 5.375H75.5234C75.7005 5.375 75.8724 5.34635 76.0391 5.28906C76.2057 5.23177 76.3776 5.20312 76.5547 5.20312H76.7812C76.901 5.21354 77.0312 5.23698 77.1719 5.27344C77.3125 5.30469 77.4453 5.32031 77.5703 5.32031C77.6276 5.32031 77.6849 5.3099 77.7422 5.28906C77.7995 5.26823 77.862 5.25781 77.9297 5.25781H77.9688C78.0156 5.27344 78.0781 5.29167 78.1562 5.3125C78.2396 5.32812 78.3229 5.34896 78.4062 5.375C78.4896 5.40104 78.5651 5.43229 78.6328 5.46875C78.7057 5.50521 78.7552 5.54688 78.7812 5.59375C78.8281 5.67708 78.8776 5.76562 78.9297 5.85938C78.9818 5.95312 79.0286 6.04948 79.0703 6.14844C79.1172 6.2474 79.1536 6.34896 79.1797 6.45312C79.2109 6.55729 79.2266 6.65885 79.2266 6.75781C79.2266 6.8151 79.2109 6.8724 79.1797 6.92969C79.1536 6.98698 79.112 7.02865 79.0547 7.05469C79.0391 7.0651 79.0026 7.07031 78.9453 7.07031C78.8932 7.07031 78.8568 7.07031 78.8359 7.07031C78.7422 7.07031 78.6719 7.0651 78.625 7.05469C78.5781 7.04427 78.5391 7.02604 78.5078 7C78.4766 6.96875 78.4453 6.93229 78.4141 6.89062C78.388 6.84375 78.349 6.78906 78.2969 6.72656C78.2917 6.71615 78.2734 6.69531 78.2422 6.66406C78.2109 6.63281 78.1771 6.60156 78.1406 6.57031C78.1042 6.53385 78.0677 6.5 78.0312 6.46875C78 6.4375 77.9792 6.41667 77.9688 6.40625C77.9635 6.39583 77.9557 6.36979 77.9453 6.32812C77.9349 6.28125 77.9297 6.2526 77.9297 6.24219C77.8984 6.16406 77.8516 6.10938 77.7891 6.07812C77.7318 6.04688 77.6667 6.02344 77.5938 6.00781C77.5208 5.99219 77.4453 5.97656 77.3672 5.96094C77.2943 5.94531 77.2266 5.91406 77.1641 5.86719H76.3359C76.2682 5.86719 76.2083 5.89062 76.1562 5.9375C76.1094 5.98438 76.0625 6.03125 76.0156 6.07812C75.9062 6.21354 75.8411 6.36979 75.8203 6.54688C75.8047 6.71875 75.7969 6.88802 75.7969 7.05469C75.7969 7.23698 75.7995 7.40625 75.8047 7.5625C75.8099 7.71875 75.8307 7.89062 75.8672 8.07812C75.8724 8.15104 75.8932 8.19792 75.9297 8.21875C75.9714 8.23438 76.0182 8.24219 76.0703 8.24219H76.1875C76.1979 8.24219 76.2214 8.23698 76.2578 8.22656C76.2995 8.21094 76.3255 8.20312 76.3359 8.20312C76.3516 8.19792 76.3854 8.19271 76.4375 8.1875C76.4948 8.17708 76.5521 8.16927 76.6094 8.16406C76.6719 8.15885 76.7292 8.15625 76.7812 8.15625C76.8385 8.15104 76.875 8.14844 76.8906 8.14844C76.9635 8.13281 77.0208 8.10938 77.0625 8.07812C77.1094 8.04688 77.1458 8.01042 77.1719 7.96875C77.1979 7.92188 77.2214 7.8724 77.2422 7.82031C77.263 7.76823 77.2891 7.71615 77.3203 7.66406C77.3464 7.61198 77.375 7.55469 77.4062 7.49219C77.4375 7.42448 77.4714 7.36198 77.5078 7.30469C77.5495 7.2474 77.5964 7.19792 77.6484 7.15625C77.7005 7.11458 77.763 7.09375 77.8359 7.09375C77.9036 7.09375 77.9505 7.11719 77.9766 7.16406C78.0026 7.20573 78.0182 7.26302 78.0234 7.33594C78.0495 7.51823 78.0651 7.67708 78.0703 7.8125C78.0755 7.94792 78.0781 8.10417 78.0781 8.28125V8.57031C78.0781 8.60156 78.0755 8.65625 78.0703 8.73438C78.0651 8.80729 78.0599 8.88281 78.0547 8.96094C78.0495 9.03906 78.0443 9.11458 78.0391 9.1875C78.0339 9.25521 78.0286 9.29948 78.0234 9.32031C78.0234 9.34635 78.013 9.38802 77.9922 9.44531C77.9766 9.5026 77.9688 9.53906 77.9688 9.55469V9.625V9.8125C77.9688 9.85417 77.9661 9.89583 77.9609 9.9375C77.9609 9.97917 77.9505 10.013 77.9297 10.0391C77.9089 10.0547 77.8698 10.0833 77.8125 10.125C77.7604 10.1667 77.724 10.1927 77.7031 10.2031H77.5703C77.5443 10.2031 77.5208 10.2057 77.5 10.2109C77.4844 10.2161 77.4714 10.2188 77.4609 10.2188C77.4297 10.2188 77.4062 10.2005 77.3906 10.1641C77.3698 10.1432 77.3464 10.1068 77.3203 10.0547C77.2943 9.9974 77.2786 9.95573 77.2734 9.92969V9.28125C77.2682 9.21354 77.2474 9.15885 77.2109 9.11719C77.1745 9.07031 77.1276 9.03646 77.0703 9.01562C77.013 8.99479 76.9479 8.98177 76.875 8.97656C76.8073 8.96615 76.7396 8.96094 76.6719 8.96094H76.375H76.2266C76.1745 8.96094 76.1224 8.96354 76.0703 8.96875C76.0234 8.97396 75.9792 8.98698 75.9375 9.00781C75.8958 9.02344 75.862 9.05208 75.8359 9.09375C75.8099 9.13021 75.7969 9.17969 75.7969 9.24219V9.32031C75.8021 9.33594 75.8073 9.3776 75.8125 9.44531C75.8177 9.51302 75.8229 9.58333 75.8281 9.65625C75.8385 9.72917 75.8464 9.79948 75.8516 9.86719C75.8568 9.92969 75.862 9.96875 75.8672 9.98438V10.5V10.7031C75.8672 10.7083 75.8698 10.724 75.875 10.75C75.8854 10.7708 75.8958 10.7995 75.9062 10.8359C75.9167 10.8672 75.9271 10.901 75.9375 10.9375C75.9479 10.9688 75.9583 10.9948 75.9688 11.0156C75.9948 11.0781 76.026 11.125 76.0625 11.1562C76.1042 11.1823 76.1484 11.2005 76.1953 11.2109C76.2422 11.2214 76.2917 11.2266 76.3438 11.2266C76.401 11.2266 76.4583 11.2318 76.5156 11.2422C76.6042 11.2526 76.6927 11.2708 76.7812 11.2969C76.8698 11.3229 76.9661 11.3359 77.0703 11.3359H77.3125C77.474 11.3359 77.638 11.3307 77.8047 11.3203C77.9766 11.3099 78.1406 11.2839 78.2969 11.2422C78.3073 11.2422 78.3281 11.2344 78.3594 11.2188C78.3906 11.1979 78.4115 11.1875 78.4219 11.1875C78.4323 11.1719 78.4557 11.151 78.4922 11.125C78.5286 11.0938 78.5651 11.0625 78.6016 11.0312C78.6432 10.9948 78.6797 10.9609 78.7109 10.9297C78.7474 10.8932 78.7708 10.8672 78.7812 10.8516C78.7969 10.8411 78.8255 10.8151 78.8672 10.7734C78.9089 10.7318 78.9531 10.6875 79 10.6406C79.0521 10.5885 79.099 10.5443 79.1406 10.5078C79.1823 10.4661 79.2109 10.4401 79.2266 10.4297C79.2526 10.4036 79.2786 10.388 79.3047 10.3828C79.3359 10.3724 79.3698 10.3672 79.4062 10.3672H79.5156C79.5729 10.3672 79.6354 10.3698 79.7031 10.375C79.7708 10.3802 79.8255 10.3984 79.8672 10.4297C79.9714 10.5026 80.0625 10.5807 80.1406 10.6641C80.2188 10.7422 80.2578 10.8464 80.2578 10.9766V11.0703C80.2526 11.0911 80.2422 11.125 80.2266 11.1719C80.2161 11.2135 80.2005 11.2578 80.1797 11.3047C80.1641 11.3516 80.1458 11.3958 80.125 11.4375C80.1094 11.474 80.099 11.5 80.0938 11.5156C80.0677 11.5573 80.0182 11.6068 79.9453 11.6641C79.8724 11.7161 79.8151 11.7552 79.7734 11.7812C79.7422 11.7969 79.7005 11.8177 79.6484 11.8438C79.6016 11.8698 79.5547 11.8958 79.5078 11.9219C79.4609 11.9427 79.4193 11.9609 79.3828 11.9766C79.3464 11.9922 79.3255 12 79.3203 12H74.7656C74.6927 12.026 74.6172 12.0417 74.5391 12.0469C74.4609 12.0521 74.3802 12.0547 74.2969 12.0547H74.1094H73.7422C73.7214 12.0547 73.6875 12.0469 73.6406 12.0312C73.599 12.0208 73.5781 12.0104 73.5781 12C73.5677 11.9792 73.5469 11.9427 73.5156 11.8906C73.4844 11.8333 73.4688 11.7969 73.4688 11.7812ZM81.8125 12.0391C81.8021 12.0391 81.7656 12.0469 81.7031 12.0625C81.6406 12.0833 81.6042 12.099 81.5938 12.1094H81.4688C81.3646 12.1094 81.2682 12.0859 81.1797 12.0391C81.0964 11.9974 81.0547 11.9167 81.0547 11.7969V11.7266C81.0651 11.7161 81.0911 11.6979 81.1328 11.6719C81.1797 11.6406 81.2083 11.625 81.2188 11.625C81.224 11.6198 81.237 11.6068 81.2578 11.5859C81.2786 11.5599 81.2995 11.5365 81.3203 11.5156C81.3464 11.4896 81.3672 11.4661 81.3828 11.4453C81.4036 11.4245 81.4167 11.4115 81.4219 11.4062C81.4323 11.401 81.4531 11.3958 81.4844 11.3906C81.5208 11.3854 81.5573 11.3802 81.5938 11.375C81.6302 11.3698 81.6641 11.3646 81.6953 11.3594C81.7266 11.3542 81.7474 11.3516 81.7578 11.3516C81.9349 11.2995 82.0781 11.2083 82.1875 11.0781V9.77344C82.1927 9.76823 82.1979 9.7526 82.2031 9.72656C82.2135 9.69531 82.2214 9.66406 82.2266 9.63281C82.237 9.60156 82.2448 9.57292 82.25 9.54688C82.2552 9.52083 82.2578 9.50521 82.2578 9.5V9.16406C82.2578 9.03385 82.2448 8.90885 82.2188 8.78906C82.1979 8.66406 82.1875 8.54167 82.1875 8.42188C82.1875 8.15625 82.224 7.89844 82.2969 7.64844V6.29688C82.2969 6.28646 82.2917 6.26823 82.2812 6.24219C82.276 6.21615 82.2682 6.19792 82.2578 6.1875C82.2422 6.17188 82.2214 6.15365 82.1953 6.13281C82.1745 6.11198 82.151 6.09115 82.125 6.07031C82.1042 6.04427 82.0833 6.02083 82.0625 6C82.0417 5.97917 82.0286 5.96615 82.0234 5.96094C82.0182 5.95573 82 5.95052 81.9688 5.94531C81.9375 5.9349 81.9036 5.92448 81.8672 5.91406C81.8307 5.90365 81.7969 5.89323 81.7656 5.88281C81.7344 5.8724 81.7188 5.86719 81.7188 5.86719C81.6354 5.84115 81.5677 5.80469 81.5156 5.75781C81.4688 5.71094 81.4219 5.65625 81.375 5.59375V5.55469C81.375 5.52865 81.388 5.50781 81.4141 5.49219C81.4401 5.47656 81.4688 5.46615 81.5 5.46094C81.5312 5.45052 81.5599 5.44271 81.5859 5.4375C81.6172 5.43229 81.638 5.42448 81.6484 5.41406C81.6693 5.40885 81.7135 5.39583 81.7812 5.375C81.849 5.34896 81.8958 5.33073 81.9219 5.32031H83.3359C83.3411 5.32031 83.3594 5.31771 83.3906 5.3125C83.4271 5.30729 83.4609 5.30208 83.4922 5.29688C83.5286 5.28646 83.5625 5.27865 83.5938 5.27344C83.625 5.26823 83.6432 5.26562 83.6484 5.26562C83.6536 5.26562 83.6719 5.26562 83.7031 5.26562C83.7396 5.26042 83.7786 5.25781 83.8203 5.25781C83.8672 5.25781 83.9115 5.25781 83.9531 5.25781C83.9948 5.25781 84.0286 5.25781 84.0547 5.25781C84.0859 5.25781 84.1224 5.25781 84.1641 5.25781C84.2109 5.25781 84.2552 5.25781 84.2969 5.25781C84.3385 5.25781 84.375 5.26042 84.4062 5.26562C84.4375 5.26562 84.4557 5.26562 84.4609 5.26562C84.5078 5.26562 84.5625 5.26823 84.625 5.27344C84.6927 5.27344 84.7552 5.28385 84.8125 5.30469C84.8698 5.32031 84.9193 5.34896 84.9609 5.39062C85.0026 5.42708 85.0234 5.48177 85.0234 5.55469C85.0234 5.63281 85.0026 5.6875 84.9609 5.71875C84.9193 5.75 84.8698 5.77083 84.8125 5.78125C84.7552 5.79167 84.6927 5.79688 84.625 5.79688C84.5625 5.79167 84.5078 5.79688 84.4609 5.8125C84.4557 5.8125 84.4427 5.81771 84.4219 5.82812C84.4062 5.83854 84.3854 5.85156 84.3594 5.86719C84.3385 5.88281 84.3177 5.89583 84.2969 5.90625C84.276 5.91667 84.263 5.92188 84.2578 5.92188C84.1745 5.95312 84.0885 5.98698 84 6.02344C83.9167 6.05469 83.875 6.1224 83.875 6.22656C83.875 6.29948 83.8828 6.36719 83.8984 6.42969C83.9141 6.48698 83.9219 6.54948 83.9219 6.61719V6.67188C83.9219 6.68229 83.9141 6.71875 83.8984 6.78125C83.8828 6.84375 83.875 6.88021 83.875 6.89062V7.33594C83.875 7.34635 83.8672 7.36458 83.8516 7.39062C83.8411 7.41146 83.8307 7.42448 83.8203 7.42969C83.7891 7.78906 83.7708 8.14583 83.7656 8.5C83.7604 8.85417 83.7396 9.21094 83.7031 9.57031C83.7031 9.60156 83.6901 9.65885 83.6641 9.74219C83.638 9.82552 83.6198 9.88802 83.6094 9.92969V10.9609C83.6198 10.9714 83.6328 10.9818 83.6484 10.9922C83.6693 11.0078 83.6875 11.0156 83.7031 11.0156C83.8177 11.0625 83.9401 11.0964 84.0703 11.1172C84.2057 11.138 84.3411 11.1536 84.4766 11.1641C84.612 11.1693 84.7422 11.1719 84.8672 11.1719C84.9974 11.1719 85.1172 11.1771 85.2266 11.1875C85.2318 11.1875 85.2474 11.1901 85.2734 11.1953C85.3047 11.2005 85.3359 11.2057 85.3672 11.2109C85.3984 11.2109 85.4271 11.2135 85.4531 11.2188C85.4844 11.224 85.5052 11.2266 85.5156 11.2266H85.5703H85.6094C85.7396 11.1953 85.8568 11.1667 85.9609 11.1406C86.0651 11.1094 86.1693 11.0495 86.2734 10.9609C86.3672 10.8828 86.4557 10.8021 86.5391 10.7188C86.6276 10.6302 86.7161 10.5443 86.8047 10.4609C86.8984 10.3776 86.9922 10.2995 87.0859 10.2266C87.1849 10.1536 87.2917 10.0911 87.4062 10.0391H87.4297H87.4609C87.612 10.0859 87.7109 10.1589 87.7578 10.2578C87.8099 10.3516 87.8359 10.474 87.8359 10.625V10.7422C87.8307 10.763 87.8125 10.8021 87.7812 10.8594C87.7552 10.9167 87.737 10.9505 87.7266 10.9609C87.7109 11.0234 87.6979 11.0964 87.6875 11.1797C87.6771 11.2578 87.6615 11.3385 87.6406 11.4219C87.6198 11.5 87.5911 11.5755 87.5547 11.6484C87.5182 11.7214 87.4688 11.7839 87.4062 11.8359C87.3854 11.8516 87.3568 11.8698 87.3203 11.8906C87.2891 11.9115 87.2552 11.9349 87.2188 11.9609C87.1823 11.9818 87.151 12 87.125 12.0156C87.099 12.0312 87.0833 12.0391 87.0781 12.0391C87.0729 12.0495 87.0391 12.0547 86.9766 12.0547C86.9193 12.0547 86.8594 12.0521 86.7969 12.0469C86.7396 12.0417 86.7031 12.0391 86.6875 12.0391C86.6823 12.0547 86.651 12.0781 86.5938 12.1094C86.5365 12.1458 86.4974 12.1641 86.4766 12.1641C86.3776 12.1693 86.2656 12.1536 86.1406 12.1172C86.0208 12.0859 85.9193 12.0469 85.8359 12H83.875C83.8542 12.0104 83.8099 12.0182 83.7422 12.0234C83.6745 12.0339 83.6302 12.0391 83.6094 12.0391C83.599 12.0495 83.5495 12.0547 83.4609 12.0547C83.388 12.0547 83.3073 12.0521 83.2188 12.0469C83.1302 12.0417 83.0807 12.0391 83.0703 12.0391C83.0599 12.0495 83.0365 12.0625 83 12.0781C82.9688 12.099 82.9349 12.1198 82.8984 12.1406C82.862 12.1615 82.8281 12.1797 82.7969 12.1953C82.7656 12.2109 82.7474 12.2188 82.7422 12.2188C82.7318 12.2188 82.7031 12.2083 82.6562 12.1875C82.6094 12.1719 82.5807 12.1641 82.5703 12.1641C82.5599 12.1589 82.526 12.1536 82.4688 12.1484C82.4167 12.1432 82.3594 12.138 82.2969 12.1328C82.2344 12.1276 82.1771 12.1224 82.125 12.1172C82.0729 12.112 82.0391 12.1094 82.0234 12.1094C82.0234 12.1042 82.0104 12.0964 81.9844 12.0859C81.9635 12.0807 81.9401 12.0729 81.9141 12.0625C81.8932 12.0573 81.8698 12.0521 81.8438 12.0469C81.8229 12.0417 81.8125 12.0391 81.8125 12.0391ZM88.6875 10.8906V10.7031C88.6875 10.6927 88.7031 10.6589 88.7344 10.6016C88.7656 10.5443 88.7812 10.5104 88.7812 10.5C88.8073 10.4375 88.8307 10.3698 88.8516 10.2969C88.8724 10.2188 88.8958 10.1458 88.9219 10.0781C88.9531 10.0104 88.9922 9.95312 89.0391 9.90625C89.0911 9.85938 89.1589 9.83594 89.2422 9.83594H89.3203C89.3359 9.83594 89.3568 9.85938 89.3828 9.90625C89.4089 9.95312 89.4297 9.98958 89.4453 10.0156C89.513 10.1406 89.5859 10.2839 89.6641 10.4453C89.7474 10.6016 89.8411 10.7474 89.9453 10.8828C90.0547 11.0182 90.1771 11.1328 90.3125 11.2266C90.4531 11.3203 90.6146 11.3672 90.7969 11.3672C90.8646 11.3672 90.9505 11.3438 91.0547 11.2969C91.1641 11.2448 91.2682 11.1849 91.3672 11.1172C91.4714 11.0495 91.5625 10.9792 91.6406 10.9062C91.7188 10.8281 91.7656 10.7604 91.7812 10.7031C91.8021 10.6406 91.8177 10.5833 91.8281 10.5312C91.8438 10.4792 91.8516 10.4245 91.8516 10.3672C91.8516 10.3203 91.8464 10.2682 91.8359 10.2109C91.8255 10.1536 91.8073 10.0885 91.7812 10.0156C91.7812 9.95312 91.7266 9.86719 91.6172 9.75781C91.513 9.64844 91.3906 9.54167 91.25 9.4375C91.1094 9.32812 90.974 9.22917 90.8438 9.14062C90.7135 9.05208 90.625 8.99479 90.5781 8.96875C90.5208 8.94792 90.4635 8.9375 90.4062 8.9375C90.349 8.93229 90.2995 8.91146 90.2578 8.875C90.2526 8.86458 90.2396 8.84896 90.2188 8.82812C90.1979 8.80729 90.1745 8.78646 90.1484 8.76562C90.1224 8.73958 90.099 8.71615 90.0781 8.69531C90.0573 8.67448 90.0443 8.66406 90.0391 8.66406C90.0286 8.64323 89.9948 8.61458 89.9375 8.57812C89.8854 8.53646 89.8464 8.50521 89.8203 8.48438L89.7188 8.42969C89.7031 8.41406 89.6745 8.38802 89.6328 8.35156C89.5911 8.3099 89.5469 8.26562 89.5 8.21875C89.4531 8.17188 89.4089 8.1276 89.3672 8.08594C89.3255 8.04427 89.2969 8.01562 89.2812 8C89.25 7.91146 89.2214 7.82292 89.1953 7.73438C89.1693 7.64583 89.1432 7.55469 89.1172 7.46094C89.112 7.4349 89.1042 7.39844 89.0938 7.35156C89.0833 7.30469 89.0703 7.26042 89.0547 7.21875C89.0443 7.17188 89.0339 7.13281 89.0234 7.10156C89.0182 7.0651 89.0156 7.04427 89.0156 7.03906C89.0052 6.89844 89.0156 6.7526 89.0469 6.60156C89.0781 6.44531 89.125 6.29688 89.1875 6.15625C89.25 6.01562 89.3255 5.88542 89.4141 5.76562C89.5078 5.64062 89.6094 5.53906 89.7188 5.46094C89.724 5.45052 89.75 5.4401 89.7969 5.42969C89.849 5.41406 89.8802 5.40104 89.8906 5.39062C89.9688 5.35938 90.0547 5.3125 90.1484 5.25C90.2422 5.18229 90.3385 5.11719 90.4375 5.05469C90.5365 4.98698 90.6354 4.92969 90.7344 4.88281C90.8333 4.83594 90.9271 4.8125 91.0156 4.8125C91.1042 4.8125 91.2031 4.83333 91.3125 4.875C91.4271 4.91146 91.526 4.94271 91.6094 4.96875C91.75 5.01562 91.8828 5.0599 92.0078 5.10156C92.138 5.14323 92.2526 5.19792 92.3516 5.26562C92.4557 5.33333 92.5365 5.41927 92.5938 5.52344C92.6562 5.6276 92.6875 5.76302 92.6875 5.92969C92.6875 5.98698 92.6797 6.07031 92.6641 6.17969C92.6536 6.28385 92.6328 6.38802 92.6016 6.49219C92.5703 6.59115 92.526 6.67969 92.4688 6.75781C92.4167 6.83073 92.3464 6.86719 92.2578 6.86719H92.2031C92.1927 6.85677 92.1745 6.82031 92.1484 6.75781C92.1224 6.69531 92.1042 6.65885 92.0938 6.64844C92.0208 6.51823 91.9401 6.39323 91.8516 6.27344C91.7682 6.15365 91.6719 6.04948 91.5625 5.96094C91.4583 5.86719 91.3438 5.79427 91.2188 5.74219C91.0938 5.6901 90.9531 5.66406 90.7969 5.66406C90.75 5.66406 90.6953 5.66667 90.6328 5.67188C90.5755 5.67708 90.5208 5.69531 90.4688 5.72656C90.2917 5.86198 90.1562 6.00521 90.0625 6.15625C89.974 6.30729 89.9297 6.4974 89.9297 6.72656C89.9297 6.85156 89.9583 6.96615 90.0156 7.07031C90.0729 7.16927 90.1458 7.25781 90.2344 7.33594C90.3229 7.41406 90.4219 7.48177 90.5312 7.53906C90.6406 7.59635 90.7474 7.64062 90.8516 7.67188C90.8568 7.67708 90.875 7.68229 90.9062 7.6875C90.9375 7.69271 90.9714 7.69792 91.0078 7.70312C91.0495 7.70833 91.0859 7.71354 91.1172 7.71875C91.1484 7.72396 91.1667 7.72656 91.1719 7.72656C91.1823 7.72656 91.2005 7.73698 91.2266 7.75781C91.2526 7.77344 91.2708 7.78125 91.2812 7.78125C91.3958 7.86458 91.513 7.94792 91.6328 8.03125C91.7578 8.10938 91.8776 8.19271 91.9922 8.28125C92.112 8.36458 92.2266 8.45573 92.3359 8.55469C92.4453 8.65365 92.5443 8.76042 92.6328 8.875C92.638 8.88021 92.6484 8.89844 92.6641 8.92969C92.6797 8.96094 92.6953 8.9974 92.7109 9.03906C92.7318 9.07552 92.75 9.11458 92.7656 9.15625C92.7865 9.19271 92.8021 9.22135 92.8125 9.24219C92.8125 9.2526 92.8125 9.27344 92.8125 9.30469C92.8177 9.33594 92.8229 9.36979 92.8281 9.40625C92.8333 9.44271 92.8385 9.47917 92.8438 9.51562C92.849 9.54688 92.8568 9.5651 92.8672 9.57031C92.888 9.63281 92.9115 9.6901 92.9375 9.74219C92.9688 9.78906 92.9974 9.83594 93.0234 9.88281C93.0547 9.92969 93.0807 9.97656 93.1016 10.0234C93.1224 10.0703 93.1328 10.125 93.1328 10.1875C93.1328 10.3542 93.0964 10.5078 93.0234 10.6484C92.9557 10.7891 92.8854 10.9375 92.8125 11.0938C92.7396 11.2031 92.6484 11.3099 92.5391 11.4141C92.4349 11.5182 92.3438 11.6042 92.2656 11.6719C92.0573 11.8542 91.8177 11.9818 91.5469 12.0547C91.276 12.1328 91.0156 12.1719 90.7656 12.1719C90.5781 12.1719 90.388 12.1615 90.1953 12.1406C90.0026 12.1198 89.8255 12.0729 89.6641 12C89.6536 11.9948 89.6328 11.9844 89.6016 11.9688C89.5703 11.9479 89.5339 11.9271 89.4922 11.9062C89.4557 11.8802 89.4193 11.8568 89.3828 11.8359C89.3516 11.8151 89.3307 11.8021 89.3203 11.7969C89.2161 11.7344 89.125 11.6797 89.0469 11.6328C88.9688 11.5807 88.901 11.5234 88.8438 11.4609C88.7917 11.3984 88.7526 11.3229 88.7266 11.2344C88.7005 11.1458 88.6875 11.0312 88.6875 10.8906Z" fill="white"/>
</svg>
